<svg width="95" height="76" viewBox="0 0 95 76" fill="none" xmlns="http://www.w3.org/2000/svg">
<path d="M77.8601 10.3662C77.8358 10.3192 77.7956 10.2824 77.7467 10.2623C72.0878 7.66597 66.116 5.81455 59.9808 4.75442C59.9251 4.74406 59.8675 4.75153 59.8162 4.77578C59.765 4.80003 59.7227 4.83982 59.6953 4.8895C58.8822 6.3654 58.144 7.88139 57.4836 9.43169C50.8702 8.42778 44.1432 8.42778 37.5298 9.43169C36.865 7.87745 36.115 6.36108 35.2832 4.8895C35.2546 4.8409 35.2121 4.80203 35.1612 4.77794C35.1103 4.75384 35.0532 4.74565 34.9976 4.75442C28.8617 5.81232 22.8896 7.66388 17.2314 10.2625C17.1829 10.283 17.1421 10.3181 17.1144 10.3628C5.79917 27.2607 2.69949 43.743 4.22009 60.0213C4.22437 60.0612 4.23662 60.0998 4.25613 60.1349C4.27564 60.1699 4.302 60.2007 4.33364 60.2254C10.9224 65.1039 18.292 68.8276 26.128 71.2378C26.1832 71.2544 26.2421 71.2536 26.2968 71.2357C26.3516 71.2177 26.3995 71.1835 26.4342 71.1375C28.1172 68.8475 29.6085 66.4226 30.8928 63.8875C30.9105 63.8527 30.9206 63.8146 30.9224 63.7756C30.9242 63.7366 30.9178 63.6977 30.9035 63.6614C30.8892 63.6251 30.8674 63.5923 30.8395 63.565C30.8116 63.5378 30.7782 63.5167 30.7416 63.5033C28.39 62.6035 26.1133 61.5189 23.933 60.2595C23.8934 60.2362 23.8602 60.2036 23.8362 60.1644C23.8122 60.1252 23.7982 60.0807 23.7955 60.0348C23.7928 59.989 23.8014 59.9432 23.8206 59.9014C23.8398 59.8597 23.869 59.8233 23.9056 59.7955C24.3631 59.4528 24.8208 59.0962 25.2577 58.7361C25.2965 58.7041 25.3435 58.6836 25.3933 58.6769C25.4431 58.6702 25.4938 58.6776 25.5397 58.6981C39.8237 65.217 55.2881 65.217 69.403 58.6981C69.449 58.6762 69.5003 58.6679 69.5508 58.674C69.6014 58.6801 69.6492 58.7005 69.6886 58.7327C70.1256 59.0928 70.5832 59.4528 71.0441 59.7955C71.0809 59.823 71.1104 59.8592 71.1299 59.9007C71.1493 59.9423 71.1583 59.9881 71.1559 60.0339C71.1535 60.0798 71.1399 60.1244 71.1162 60.1637C71.0925 60.2031 71.0595 60.236 71.0201 60.2595C68.8448 61.5295 66.5661 62.6135 64.2083 63.4999C64.1717 63.5138 64.1384 63.5354 64.1107 63.563C64.083 63.5907 64.0614 63.6239 64.0474 63.6605C64.0334 63.6971 64.0272 63.7362 64.0294 63.7753C64.0315 63.8144 64.0419 63.8527 64.0599 63.8875C65.3657 66.4085 66.8548 68.8303 68.5151 71.1335C68.5488 71.1807 68.5965 71.2162 68.6514 71.2348C68.7064 71.2535 68.7658 71.2543 68.8213 71.2374C76.6713 68.8354 84.0538 65.1112 90.6508 60.2254C90.6829 60.2019 90.7097 60.1719 90.7293 60.1373C90.7488 60.1027 90.7608 60.0643 90.7644 60.0247C92.5848 41.2053 87.7166 24.8581 77.8601 10.3662ZM33.026 50.1095C28.7255 50.1095 25.182 46.163 25.182 41.3162C25.182 36.4694 28.6568 32.5226 33.026 32.5226C37.4294 32.5226 40.9386 36.5037 40.8699 41.3159C40.8699 46.163 37.395 50.1095 33.026 50.1095ZM62.0277 50.1095C57.7274 50.1095 54.1839 46.163 54.1839 41.3162C54.1839 36.4694 57.6586 32.5226 62.0277 32.5226C66.4314 32.5226 69.9405 36.5037 69.8718 41.3159C69.8718 46.163 66.4314 50.1095 62.0277 50.1095Z" fill="#003646"/>
</svg>
