<svg width="78" height="78" viewBox="0 0 78 78" fill="none" xmlns="http://www.w3.org/2000/svg">
<path d="M70.6875 9.75C74.7246 9.75 78 13.0239 78 17.0625C78 19.3629 76.9184 21.5262 75.075 22.9125L41.925 47.775C40.1883 49.0699 37.8117 49.0699 36.075 47.775L2.925 22.9125C1.08362 21.5262 0 19.3629 0 17.0625C0 13.0239 3.27387 9.75 7.3125 9.75H70.6875ZM33.15 51.675C36.6234 54.2801 41.3766 54.2801 44.85 51.675L78 26.8125V58.5C78 63.8777 73.6277 68.25 68.25 68.25H9.75C4.36465 68.25 0 63.8777 0 58.5V26.8125L33.15 51.675Z" fill="#003646"/>
</svg>
