<svg width="1922" height="113" viewBox="0 0 1922 113" fill="none" xmlns="http://www.w3.org/2000/svg">
<path d="M0 113H1922V0H0V113Z" fill="#003646"/>
<path d="M902 6H1022V113H902V6Z" fill="#8BC1D4"/>
<path d="M902 0H1022V50.5C1022 81.7041 996.704 107 965.5 107H958.5C927.296 107 902 81.7041 902 50.5V0Z" fill="#003646"/>
<path d="M770 0H1153V74H770V0Z" fill="#003646"/>
<path d="M1009 113H1922V113C1922 50.5918 1871.41 0 1809 0H1122C1059.59 0 1009 50.5918 1009 113V113Z" fill="#8BC1D4"/>
<path d="M1 113H914V113C914 50.5918 863.408 0 801 0H114C51.5918 0 1 50.5918 1 113V113Z" fill="#8BC1D4"/>
</svg>
