<svg width="79" height="81" viewBox="0 0 79 81" fill="none" xmlns="http://www.w3.org/2000/svg">
<path d="M26.4236 62.8699C26.4236 63.1863 26.0573 63.4395 25.5954 63.4395C25.0698 63.4869 24.7034 63.2338 24.7034 62.8699C24.7034 62.5535 25.0698 62.3004 25.5317 62.3004C26.0095 62.2529 26.4236 62.5061 26.4236 62.8699ZM21.4702 62.158C21.3587 62.4744 21.6772 62.8383 22.155 62.9332C22.5692 63.0914 23.047 62.9332 23.1425 62.6168C23.2381 62.3004 22.9355 61.9365 22.4577 61.7941C22.0435 61.6834 21.5817 61.8416 21.4702 62.158ZM28.5101 61.8891C28.0482 61.9998 27.7296 62.3004 27.7774 62.6643C27.8252 62.9807 28.2393 63.1863 28.7171 63.0756C29.179 62.9648 29.4976 62.6643 29.4498 62.3479C29.402 62.0473 28.972 61.8416 28.5101 61.8891ZM38.9903 1.26562C16.899 1.26562 0 17.9244 0 39.8672C0 57.4119 11.1173 72.4254 26.997 77.7094C29.0357 78.0732 29.7524 76.8234 29.7524 75.7951C29.7524 74.8143 29.7046 69.4037 29.7046 66.0814C29.7046 66.0814 18.5554 68.4545 16.2141 61.367C16.2141 61.367 14.3984 56.7633 11.7863 55.5768C11.7863 55.5768 8.13891 53.093 12.0411 53.1404C12.0411 53.1404 16.0071 53.4568 18.1891 57.2221C21.6772 63.3287 27.5226 61.5727 29.8002 60.5285C30.1665 57.9973 31.2018 56.2412 32.3486 55.1971C23.4452 54.2162 14.4621 52.9348 14.4621 37.7156C14.4621 33.365 15.6726 31.1818 18.221 28.3975C17.8069 27.3691 16.453 23.1293 18.6351 17.6555C21.9639 16.6271 29.625 21.927 29.625 21.927C32.8105 21.041 36.2349 20.5822 39.6274 20.5822C43.02 20.5822 46.4444 21.041 49.6298 21.927C49.6298 21.927 57.2909 16.6113 60.6198 17.6555C62.8018 23.1451 61.448 27.3691 61.0339 28.3975C63.5823 31.1977 65.1431 33.3809 65.1431 37.7156C65.1431 52.9822 55.7619 54.2004 46.8585 55.1971C48.3238 56.4469 49.5661 58.8199 49.5661 62.5377C49.5661 67.8691 49.5183 74.4662 49.5183 75.7635C49.5183 76.7918 50.251 78.0416 52.2738 77.6777C68.2012 72.4254 79 57.4119 79 39.8672C79 17.9244 61.0817 1.26562 38.9903 1.26562ZM15.4815 55.8299C15.2744 55.9881 15.3222 56.352 15.5929 56.6525C15.8478 56.9057 16.2141 57.0164 16.4212 56.8107C16.6282 56.6525 16.5804 56.2887 16.3097 55.9881C16.0548 55.735 15.6885 55.6242 15.4815 55.8299ZM13.7613 54.5484C13.6498 54.7541 13.8091 55.0072 14.1276 55.1654C14.3825 55.3236 14.701 55.2762 14.8125 55.0547C14.924 54.849 14.7647 54.5959 14.4462 54.4377C14.1276 54.3428 13.8728 54.3902 13.7613 54.5484ZM18.9218 60.1805C18.6669 60.3861 18.7625 60.8607 19.1288 61.1613C19.4952 61.5252 19.9571 61.5727 20.1641 61.3195C20.3712 61.1139 20.2756 60.6393 19.9571 60.3387C19.6067 59.9748 19.1288 59.9273 18.9218 60.1805ZM17.106 57.8549C16.8512 58.0131 16.8512 58.4244 17.106 58.7883C17.3609 59.1521 17.7909 59.3104 17.998 59.1521C18.2528 58.9465 18.2528 58.5352 17.998 58.1713C17.775 57.8074 17.3609 57.6492 17.106 57.8549Z" fill="#003646"/>
</svg>
