<svg width="76" height="81" viewBox="0 0 76 81" fill="none" xmlns="http://www.w3.org/2000/svg">
<path d="M64.4695 77.4375C63.0616 77.2894 61.6995 76.8317 60.473 76.0942C59.2465 75.3568 58.1832 74.3565 57.3532 73.159L55.8415 69.9289L50.5203 58.6294L50.4239 58.4319L50.4485 58.4201L50.4674 58.4102L54.5357 56.3213L56.9488 61.4547L64.4488 77.4039L64.4695 77.4375Z" fill="#80CDEE"/>
<path d="M75.5428 66.9846C75.545 68.9057 75.0396 70.7901 74.0821 72.4302L69.7813 63.2865L73.8762 61.1837L73.8932 61.1738L73.9612 61.3199L74.9438 63.4089V63.4227C74.9759 63.5116 75.0062 63.6044 75.0345 63.6952C75.0471 63.7334 75.0585 63.7709 75.0685 63.8077C75.0685 63.8196 75.0685 63.8314 75.0685 63.8433C75.3792 64.859 75.5392 65.9184 75.5428 66.9846Z" fill="#00BDFF"/>
<path d="M71.9506 75.0304C71.3814 75.5353 70.7588 75.9706 70.0949 76.3276L70.0534 76.3493L69.8002 76.4796C69.3428 76.7068 68.8697 76.8976 68.3848 77.0503H68.3603L68.1108 77.1213L67.8614 77.1885L64.9457 70.9867H64.957L69.0481 68.876H69.0575L71.9506 75.0304Z" fill="#007799"/>
<path d="M53.4359 43.5659C54.7018 43.5659 55.728 42.4937 55.728 41.1711C55.728 39.8485 54.7018 38.7764 53.4359 38.7764C52.17 38.7764 51.1438 39.8485 51.1438 41.1711C51.1438 42.4937 52.17 43.5659 53.4359 43.5659Z" fill="#80CDEE"/>
<path d="M56.2666 49.582C57.5325 49.582 58.5588 48.5097 58.5588 47.187C58.5588 45.8643 57.5325 44.792 56.2666 44.792C55.0007 44.792 53.9745 45.8643 53.9745 47.187C53.9745 48.5097 55.0007 49.582 56.2666 49.582Z" fill="#00BDFF"/>
<path d="M71.7692 64.4893C73.0351 64.4893 74.0613 63.417 74.0613 62.0942C74.0613 60.7715 73.0351 59.6992 71.7692 59.6992C70.5033 59.6992 69.4771 60.7715 69.4771 62.0942C69.4771 63.417 70.5033 64.4893 71.7692 64.4893Z" fill="#00BDFF"/>
<path d="M66.9015 72.1201C68.1674 72.1201 69.1936 71.0478 69.1936 69.7251C69.1936 68.4024 68.1674 67.3301 66.9015 67.3301C65.6356 67.3301 64.6094 68.4024 64.6094 69.7251C64.6094 71.0478 65.6356 72.1201 66.9015 72.1201Z" fill="#007799"/>
<path d="M56.2111 52.4214C56.7694 53.6085 58.1426 54.0981 59.2782 53.515C60.4139 52.9319 60.8819 51.4969 60.3236 50.3098L58.2852 45.9756C57.7269 44.7885 56.3536 44.2989 55.218 44.882C54.0823 45.4651 53.6143 46.9001 54.1726 48.0872L56.2111 52.4214Z" fill="#00BDFF"/>
<path d="M51.4047 42.2035C51.963 43.3907 53.3363 43.8803 54.4719 43.2972C55.6076 42.714 56.0757 41.279 55.5173 40.0919L51.127 30.7569C50.5687 29.5697 49.1955 29.0801 48.0598 29.6632C46.9241 30.2463 46.4561 31.6814 47.0144 32.8685L51.4047 42.2035Z" fill="#80CDEE"/>
<path d="M49.0481 34.1602C50.314 34.1602 51.3403 33.0879 51.3403 31.7653C51.3403 30.4426 50.314 29.3704 49.0481 29.3704C47.7822 29.3704 46.756 30.4426 46.756 31.7653C46.756 33.0879 47.7822 34.1602 49.0481 34.1602Z" fill="#80CDEE"/>
<path d="M47.2108 18.5236C49.6374 13.3641 47.6015 7.1262 42.6636 4.59078C37.7256 2.05536 31.7555 4.18258 29.3289 9.34205L4.39367 62.3607C1.96712 67.5201 4.00299 73.7581 8.94094 76.2935C13.8789 78.8289 19.849 76.7017 22.2756 71.5422L47.2108 18.5236Z" fill="#00BDFF"/>
<path d="M60.9037 59.3218C62.1696 59.3218 63.1959 58.2495 63.1959 56.9268C63.1959 55.604 62.1696 54.5317 60.9037 54.5317C59.6378 54.5317 58.6116 55.604 58.6116 56.9268C58.6116 58.2495 59.6378 59.3218 60.9037 59.3218Z" fill="#80CDEE"/>
<path d="M58.2715 53.7285C59.5374 53.7285 60.5637 52.6562 60.5637 51.3335C60.5637 50.0108 59.5374 48.9385 58.2715 48.9385C57.0056 48.9385 55.9794 50.0108 55.9794 51.3335C55.9794 52.6562 57.0056 53.7285 58.2715 53.7285Z" fill="#00BDFF"/>
<path d="M64.1237 66.1987C65.3896 66.1987 66.4158 65.1264 66.4158 63.8037C66.4158 62.481 65.3896 61.4087 64.1237 61.4087C62.8578 61.4087 61.8316 62.481 61.8316 63.8037C61.8316 65.1264 62.8578 66.1987 64.1237 66.1987Z" fill="#80CDEE"/>
<path d="M62.05 64.8696C62.6083 66.0567 63.9815 66.5463 65.1172 65.9632C66.2529 65.3801 66.7209 63.945 66.1626 62.7579L62.9682 55.9658C62.4099 54.7787 61.0366 54.2891 59.9009 54.8722C58.7653 55.4553 58.2972 56.8903 58.8555 58.0775L62.05 64.8696Z" fill="#80CDEE"/>
<path d="M51.3645 53.2717L51.3662 53.2708C52.8423 52.5129 53.4509 50.6481 52.7255 49.1058L48.6435 40.4264C47.9181 38.8841 46.1335 38.2482 44.6573 39.0061L44.6556 39.007C43.1795 39.7649 42.5709 41.6297 43.2963 43.172L47.3783 51.8513C48.1036 53.3937 49.8883 54.0296 51.3645 53.2717Z" fill="#007799"/>
<path d="M64.8059 77.4271C64.685 77.4173 64.5659 77.4054 64.4469 77.3896L64.4695 77.437C63.0616 77.289 61.6995 76.8312 60.473 76.0938C59.2465 75.3563 58.1832 74.356 57.3532 73.1585L55.8415 69.9284L50.5203 58.629C50.5089 58.5856 50.4976 58.5421 50.4881 58.4967C50.4787 58.4513 50.473 58.4355 50.4674 58.4039C50.3191 57.662 50.4349 56.8891 50.793 56.23C51.1512 55.5709 51.7272 55.071 52.4129 54.8239C53.0987 54.5768 53.8472 54.5996 54.518 54.8879C55.1888 55.1762 55.736 55.7103 56.0569 56.39L64.7379 74.8506C64.9259 75.2496 65.0294 75.6864 65.0411 76.1311C65.0529 76.5758 64.9726 77.0178 64.8059 77.4271Z" fill="#80CDEE"/>
<path d="M69.4873 58.7463L69.489 58.7454C70.9652 57.9875 71.5738 56.1227 70.8484 54.5804L60.0567 31.6347C59.3313 30.0923 57.5466 29.4564 56.0705 30.2144L56.0688 30.2152C54.5926 30.9732 53.984 32.8379 54.7094 34.3803L65.5011 57.3259C66.2265 58.8683 68.0112 59.5042 69.4873 58.7463Z" fill="#007799"/>
<path d="M55.4452 28.9489L55.4469 28.948C56.923 28.1901 57.5316 26.3254 56.8062 24.783L55.8228 22.6921C55.0974 21.1497 53.3127 20.5138 51.8366 21.2717L51.8349 21.2726C50.3588 22.0305 49.7502 23.8953 50.4755 25.4376L51.459 27.5286C52.1844 29.0709 53.9691 29.7068 55.4452 28.9489Z" fill="#00BDFF"/>
<path d="M72.5306 74.5309C71.3611 75.7108 69.9343 76.5755 68.3735 77.0503H68.3489L68.0995 77.1214L67.85 77.1885C67.6365 77.2418 67.4211 77.2872 67.2057 77.3228L64.5507 71.6778C64.3782 71.311 64.2764 70.9124 64.2513 70.5045C64.2261 70.0966 64.2781 69.6876 64.4043 69.3008C64.5305 68.9139 64.7283 68.5568 64.9866 68.2498C65.2448 67.9429 65.5584 67.6921 65.9094 67.5117C66.2604 67.3314 66.642 67.2251 67.0323 67.1988C67.4226 67.1726 67.8141 67.2269 68.1843 67.3587C68.5546 67.4905 68.8963 67.6973 69.1901 67.9671C69.4839 68.2369 69.7239 68.5646 69.8965 68.9314L72.5306 74.5309Z" fill="#007799"/>
<path d="M65.2164 65.9186L65.2181 65.9178C66.6942 65.1598 67.3028 63.2951 66.5774 61.7527L63.9472 56.1603C63.2218 54.618 61.4371 53.9821 59.961 54.74L59.9593 54.7409C58.4831 55.4988 57.8745 57.3635 58.5999 58.9059L61.2301 64.4983C61.9555 66.0407 63.7402 66.6766 65.2164 65.9186Z" fill="#80CDEE"/>
<path d="M59.2834 53.4147L59.2851 53.4139C60.7612 52.6559 61.3698 50.7912 60.6444 49.2488L59.2835 46.3551C58.5581 44.8128 56.7734 44.1769 55.2973 44.9348L55.2956 44.9357C53.8194 45.6936 53.2108 47.5584 53.9362 49.1007L55.2972 51.9944C56.0225 53.5368 57.8072 54.1727 59.2834 53.4147Z" fill="#00BDFF"/>
<path d="M54.468 43.3942L54.4697 43.3934C55.9459 42.6354 56.5545 40.7707 55.8291 39.2283L52.0454 31.1833C51.32 29.641 49.5353 29.005 48.0592 29.763L48.0575 29.7639C46.5814 30.5218 45.9728 32.3866 46.6981 33.9289L50.4818 41.9739C51.2072 43.5163 52.9919 44.1522 54.468 43.3942Z" fill="#80CDEE"/>
<path d="M73.2242 73.7666C73.1744 73.6844 73.129 73.5994 73.0881 73.5119L68.7798 64.3525C68.4315 63.6116 68.3791 62.7564 68.6343 61.9751C68.8894 61.1938 69.4312 60.5504 70.1403 60.1865C70.8495 59.8225 71.6679 59.7679 72.4157 60.0345C73.1634 60.3011 73.7791 60.8671 74.1274 61.6081L74.8115 63.0632C74.8568 63.1758 74.9003 63.2903 74.94 63.4048L74.9627 63.468C74.9759 63.5015 74.9872 63.5371 74.9986 63.5707C75.5808 65.284 75.7233 67.1269 75.412 68.9157C75.1007 70.7046 74.3464 72.3771 73.2242 73.7666Z" fill="#00BDFF"/>
</svg>
