<svg width="735" height="636" viewBox="0 0 735 636" fill="none" xmlns="http://www.w3.org/2000/svg">
<path d="M657.018 323.999C656.997 381.8 640.907 438.456 610.546 487.64C580.185 536.824 536.748 576.599 485.087 602.523C482.443 603.853 479.771 605.145 477.073 606.4C407.342 638.76 328.134 644.298 254.579 621.956C247.36 619.75 240.256 617.295 233.264 614.591C169.328 589.859 115.334 544.729 79.6509 486.195C43.9673 427.662 28.5862 358.993 35.891 290.83C43.1959 222.667 72.7789 158.817 120.056 109.174C167.332 59.5312 229.663 26.8675 297.388 16.2449C313.328 13.7783 329.435 12.5419 345.566 12.5464C517.578 12.5464 657.018 151.986 657.018 323.999Z" fill="#E9CED3"/>
<path d="M504.421 106.356C504.574 107.562 504.727 108.768 504.862 109.992C506.836 126.221 507.489 142.584 506.814 158.919C506.782 160.182 506.73 161.463 506.662 162.723C504.615 202.06 495.284 240.675 479.141 276.605C472.704 290.896 465.19 304.678 456.662 317.829C444.884 335.991 430.669 354.746 425.724 375.138C425.184 377.26 424.776 379.413 424.503 381.585L496.721 466.847C496.983 466.958 497.225 467.087 497.488 467.199L500.215 470.735C500.703 470.088 501.194 469.406 501.681 468.758C501.965 468.384 502.233 467.99 502.518 467.616C502.702 467.36 502.886 467.103 503.067 466.883C503.128 466.798 503.189 466.712 503.231 466.644C503.412 466.424 503.557 466.2 503.719 465.996C506.476 462.191 509.211 458.36 511.924 454.503C511.943 454.486 511.944 454.486 511.947 454.451C532.545 425.009 550.867 393.588 563.837 360.386C564.227 359.387 564.637 358.372 564.994 357.334C570.757 342.336 575.284 326.891 578.531 311.155C580.282 302.533 581.594 293.827 582.464 285.072C584.669 262.446 583.3 239.614 578.41 217.413C568.653 173.157 544.852 132.514 507.308 108.186C506.347 107.565 505.401 106.961 504.421 106.356Z" fill="#D64D66"/>
<path d="M503.501 107.464C531.031 157.063 542.232 214.076 535.514 270.404C534.001 282.463 531.418 294.564 526.214 305.612C521.059 316.342 513.124 325.496 503.235 332.123C494.138 338.487 484.096 343.943 476.705 352.407C468.914 361.329 466.097 372.828 467.425 384.472C469.049 398.719 475.696 411.532 482.631 423.837C490.332 437.498 498.546 451.567 499.513 467.593C499.631 469.535 502.637 469.24 502.52 467.301C500.837 439.418 478.787 418.819 471.99 392.513C468.819 380.238 469.328 366.934 477.248 356.519C484.173 347.412 494.524 341.777 503.79 335.413C513.52 328.73 521.61 320.815 527.224 310.328C532.967 299.6 536.03 287.575 537.844 275.607C541.756 248.439 541.372 220.825 536.706 193.777C531.551 162.877 521.149 133.086 505.949 105.694C505.008 103.999 502.566 105.78 503.501 107.464V107.464Z" fill="white"/>
<path d="M538.745 252.394C548.349 252.238 557.584 248.674 564.802 242.337C572.02 236 576.751 227.304 578.149 217.802C578.425 215.878 575.449 215.358 575.172 217.285C573.887 226.136 569.479 234.236 562.746 240.123C556.012 246.01 547.396 249.296 538.452 249.388C536.509 249.41 536.812 252.416 538.745 252.394V252.394Z" fill="white"/>
<path d="M508.272 329.504C494.044 315.974 485.437 297.578 484.169 277.985C484.045 276.044 481.039 276.339 481.163 278.278C482.52 298.664 491.516 317.79 506.353 331.836C507.768 333.174 509.68 330.834 508.272 329.504L508.272 329.504Z" fill="white"/>
<path d="M528.188 165.051C524.485 165.886 520.632 165.787 516.976 164.765C513.32 163.743 509.975 161.828 507.242 159.194C505.845 157.839 503.935 160.18 505.323 161.527C508.357 164.423 512.053 166.533 516.09 167.671C520.127 168.81 524.381 168.942 528.48 168.057C528.874 168.006 529.233 167.808 529.485 167.501C529.737 167.195 529.863 166.804 529.837 166.408C529.797 166.01 529.601 165.644 529.292 165.39C528.983 165.136 528.586 165.014 528.188 165.051H528.188Z" fill="white"/>
<path d="M183.964 241.663C183.841 242.625 183.719 243.587 183.612 244.564C182.037 257.512 181.516 270.566 182.054 283.599C182.08 284.607 182.121 285.629 182.176 286.634C183.808 318.018 191.253 348.827 204.133 377.493C209.268 388.895 215.264 399.89 222.067 410.383C231.464 424.873 242.806 439.837 246.751 456.106C247.181 457.799 247.507 459.517 247.725 461.25L190.107 529.274C189.898 529.363 189.704 529.466 189.495 529.556L187.319 532.377C186.93 531.86 186.538 531.316 186.15 530.799C185.923 530.501 185.709 530.187 185.482 529.888C185.335 529.684 185.189 529.479 185.044 529.303C184.995 529.236 184.946 529.167 184.913 529.113C184.768 528.937 184.653 528.759 184.524 528.596C182.324 525.56 180.142 522.504 177.977 519.426C177.962 519.413 177.962 519.413 177.959 519.385C161.525 495.895 146.908 470.826 136.56 444.336C136.249 443.539 135.922 442.73 135.637 441.902C131.039 429.935 127.426 417.613 124.836 405.058C123.439 398.179 122.392 391.234 121.698 384.248C119.939 366.196 121.031 347.98 124.933 330.268C132.717 294.959 151.707 262.532 181.661 243.123C182.427 242.627 183.182 242.145 183.964 241.663Z" fill="#D64D66"/>
<path d="M184.698 242.547C162.734 282.119 153.797 327.605 159.156 372.546C160.139 382.241 162.643 391.721 166.577 400.636C170.69 409.197 177.02 416.5 184.91 421.787C192.168 426.865 200.179 431.218 206.076 437.971C209.044 441.472 211.237 445.562 212.513 449.971C213.789 454.379 214.119 459.008 213.48 463.553C212.184 474.92 206.881 485.143 201.348 494.96C195.205 505.859 188.651 517.084 187.879 529.87C187.786 531.419 185.387 531.184 185.481 529.637C186.823 507.39 204.416 490.956 209.838 469.969C212.368 460.175 211.962 449.56 205.643 441.251C200.118 433.985 191.86 429.489 184.467 424.412C176.694 419.367 170.275 412.496 165.77 404.398C161.395 395.712 158.53 386.345 157.298 376.697C154.177 355.022 154.483 332.99 158.206 311.41C162.318 286.757 170.617 262.989 182.744 241.134C183.495 239.782 185.444 241.203 184.698 242.547H184.698Z" fill="white"/>
<path d="M156.579 358.177C148.917 358.053 141.548 355.209 135.79 350.153C130.031 345.098 126.256 338.16 125.141 330.578C124.92 329.043 127.295 328.629 127.516 330.166C128.542 337.227 132.058 343.69 137.43 348.387C142.803 353.083 149.677 355.705 156.812 355.779C158.363 355.796 158.121 358.195 156.579 358.177V358.177Z" fill="white"/>
<path d="M180.891 419.698C192.243 408.903 199.109 394.226 200.121 378.594C200.22 377.045 202.619 377.281 202.52 378.828C201.437 395.093 194.26 410.352 182.422 421.559C181.293 422.626 179.768 420.759 180.891 419.698V419.698Z" fill="white"/>
<path d="M165.001 288.492C167.956 289.158 171.03 289.079 173.947 288.264C176.864 287.448 179.532 285.921 181.713 283.819C182.828 282.738 184.352 284.606 183.244 285.68C180.824 287.991 177.875 289.674 174.654 290.582C171.433 291.491 168.039 291.596 164.768 290.89C164.454 290.85 164.168 290.691 163.967 290.447C163.766 290.202 163.665 289.89 163.686 289.574C163.718 289.257 163.875 288.965 164.121 288.762C164.367 288.56 164.684 288.463 165.001 288.492V288.492Z" fill="white"/>
<path d="M370.436 433.114C419.71 433.114 459.655 393.533 459.655 344.707C459.655 295.881 419.71 256.3 370.436 256.3C321.163 256.3 281.218 295.881 281.218 344.707C281.218 393.533 321.163 433.114 370.436 433.114Z" fill="#A0616A"/>
<path d="M341.047 272.518C341.047 272.518 382.278 283.597 403.629 288.028C424.98 292.459 422.771 279.904 422.771 279.904C422.771 279.904 450.749 283.597 449.276 280.642C447.804 277.688 461.056 262.179 445.595 244.454C430.134 226.729 434.551 213.435 434.551 213.435H421.299L417.617 208.265H397.002C397.002 208.265 374.211 188.217 333.717 194.125C293.223 200.034 245.335 215.651 240.917 240.023C240.318 243.328 239.529 247.001 238.613 250.88C227.54 297.773 251.067 341.649 275.469 383.16C281.466 393.361 310.474 415.607 309.732 400.344C308.99 385.082 283.62 350.804 301.29 348.589C318.96 346.373 349.146 301.322 341.047 272.518Z" fill="#2F2E41"/>
<path d="M317.861 634.804C300.577 633.436 283.437 630.648 266.619 626.47L267.562 608.795L275.401 468.257L275.472 467.179H433.188L457.939 596.58L461.277 614.04C454.745 616.555 448.14 618.926 441.392 621.009C441.317 621.009 441.318 621.081 441.247 621.081C431.883 623.955 422.375 626.47 412.792 628.553C400.051 631.274 387.158 633.241 374.181 634.445C364.149 635.43 354.072 635.91 343.99 635.882C335.279 635.882 326.497 635.523 317.861 634.804Z" fill="#00B3DD"/>
<path d="M218.794 610.729C212.474 607.91 206.363 604.875 200.325 601.694L197.726 600.321C195.97 599.381 194.145 598.369 192.39 597.357C190 595.984 187.682 594.611 185.436 593.237C183.258 591.936 181.012 590.563 178.834 589.19C178.694 589.117 178.625 589.045 178.485 589.045C170.9 584.058 163.455 578.925 156.292 573.36C155.098 572.42 153.904 571.481 152.708 570.541L151.446 549.724L153.271 548.568L275.821 468.336L277.505 467.251L277.645 467.179L294.921 467.251V533.461C304.684 547.989 311.285 578.419 315.359 618.246C315.921 623.957 316.412 629.811 316.906 635.883C300.181 634.506 283.597 631.701 267.323 627.498C265.568 627.137 263.881 626.703 262.125 626.197C251.89 623.441 241.81 620.111 231.928 616.223C228.907 615.066 225.958 613.837 223.009 612.609L222.728 612.464C221.462 611.886 220.06 611.308 218.794 610.729Z" fill="#2F2E41"/>
<path d="M190.378 592.085C187.913 590.729 185.523 589.373 183.207 588.016C180.962 586.731 178.646 585.375 176.401 584.019C176.256 583.947 176.185 583.876 176.04 583.876C168.219 578.95 160.542 573.882 153.156 568.385C151.926 567.457 150.694 566.529 149.461 565.602C148.885 565.102 148.305 564.674 147.651 564.174C143.019 560.676 138.528 557.035 134.183 553.181C133.967 553.038 133.822 552.823 133.603 552.681C137.991 549.355 142.911 546.774 148.16 545.043L153.301 546.542L189.943 557.392L190.159 572.026L190.378 592.085Z" fill="#2F2E41"/>
<path d="M497.395 597.143C495.196 598.308 493.001 599.473 490.806 600.565C490.291 600.856 489.855 601.075 489.416 601.293C486.484 602.749 483.631 604.205 480.704 605.588C480.628 605.661 480.482 605.661 480.482 605.734C480.335 605.807 480.117 605.88 479.971 605.953C473.382 609.083 466.719 611.995 459.908 614.689C453.32 617.237 446.656 619.639 439.849 621.75C439.774 621.75 439.774 621.823 439.703 621.823C430.258 624.735 420.667 627.283 411 629.394C410.892 623.414 411.682 617.452 413.345 611.704L413.417 610.684L419.716 509.343L411.293 465.88L435.456 462.313L568.339 533.441C568.339 533.441 553.696 548.002 493.587 579.015C488.273 581.758 496.076 590.882 497.395 597.143Z" fill="#2F2E41"/>
<path d="M372.862 617.176C363.507 618.039 354.012 618.471 344.517 618.471C335.307 618.471 326.17 618.111 317.034 617.248C317.61 622.932 318.112 628.759 318.618 634.803C327.178 635.522 335.883 635.882 344.517 635.882C354.51 635.91 364.498 635.43 374.442 634.443C387.305 633.238 400.085 631.268 412.714 628.543C412.607 622.634 413.384 616.741 415.018 611.061L415.088 610.053C401.201 613.434 387.089 615.814 372.862 617.176ZM644.723 213.417C629.521 169.745 604.976 129.915 572.801 96.7043C540.625 63.4936 501.593 37.7014 458.426 21.1265C415.259 4.55149 368.996 -2.40741 322.864 0.735025C276.731 3.87746 231.839 17.0456 191.318 39.3212C150.797 61.5968 115.623 92.4438 88.2475 129.711C60.872 166.978 41.9544 209.769 32.814 255.099C23.6736 300.429 24.5304 347.207 35.3246 392.172C46.1188 437.136 66.5905 479.205 95.3124 515.445C98.1892 519.042 101.14 522.64 104.161 526.093C104.449 526.38 104.593 526.596 104.808 526.812C112.235 535.378 120.137 543.521 128.476 551.202C130.493 553.072 132.576 554.943 134.662 556.742C134.88 556.885 135.024 557.101 135.238 557.245C139.556 561.13 144.017 564.799 148.619 568.325C149.268 568.828 149.844 569.26 150.417 569.764C151.643 570.699 152.867 571.634 154.088 572.57C161.426 578.109 169.052 583.217 176.822 588.182C176.966 588.182 177.036 588.254 177.181 588.326C179.411 589.693 181.712 591.059 183.942 592.355C186.247 593.722 188.621 595.088 191.066 596.455C192.865 597.463 194.733 598.47 196.532 599.405L199.195 600.772C205.381 603.938 211.64 606.959 218.114 609.765C219.41 610.341 220.847 610.916 222.143 611.492L222.431 611.636C225.452 612.859 228.473 614.082 231.568 615.233C241.691 619.103 252.017 622.418 262.501 625.162C264.3 625.666 266.028 626.097 267.827 626.457C284.497 630.64 301.486 633.432 318.618 634.803C327.178 635.522 335.883 635.882 344.517 635.882C354.51 635.91 364.498 635.43 374.442 634.443C387.305 633.238 400.085 631.268 412.714 628.543C422.212 626.457 431.636 623.938 440.917 621.061C440.987 621.061 440.987 620.989 441.061 620.989C447.749 618.903 454.297 616.528 460.771 614.01C467.463 611.348 474.011 608.471 480.485 605.377C480.629 605.305 480.843 605.233 480.987 605.161C480.987 605.089 481.131 605.089 481.205 605.017C484.081 603.65 486.885 602.211 489.765 600.772C490.197 600.556 490.626 600.341 491.132 600.053C493.289 598.974 495.445 597.822 497.606 596.672C497.75 596.6 497.82 596.528 497.964 596.456C503.648 593.29 509.261 589.981 514.801 586.455C516.311 585.52 517.822 584.585 519.332 583.505C521.563 582.138 523.719 580.628 525.806 579.117C528.613 577.174 531.416 575.16 534.152 573.073C535.061 572.49 535.927 571.84 536.741 571.131C543.433 566.095 549.907 560.771 556.093 555.159C603.01 513.351 636.473 458.566 652.25 397.735C668.026 336.903 665.407 272.759 644.723 213.417ZM550.698 536.597C542.91 543.924 534.746 550.84 526.238 557.317C524.37 558.756 522.423 560.195 520.485 561.49C518.612 562.929 516.744 564.296 514.801 565.591C513.147 566.742 511.492 567.893 509.764 568.973C509.62 569.116 509.405 569.188 509.261 569.332C508.036 570.195 506.743 570.987 505.521 571.778C501.706 574.152 497.75 576.527 493.865 578.757C492.931 579.261 492.067 579.836 491.132 580.34C490.627 580.628 490.124 580.915 489.548 581.203C487.391 582.426 485.231 583.505 483.074 584.657C482.786 584.872 482.428 584.944 482.14 585.16C482.031 585.177 481.93 585.227 481.852 585.304C480.341 586.096 478.831 586.815 477.32 587.534C476.024 588.182 474.802 588.829 473.505 589.405C468.254 591.923 462.858 594.297 457.463 596.527C451.779 598.83 446.025 600.916 440.197 602.858C438.757 603.362 437.247 603.938 435.736 604.369C428.9 606.528 422.068 608.471 415.088 610.053C401.201 613.434 387.089 615.814 372.862 617.176C363.507 618.039 354.012 618.471 344.517 618.471C335.307 618.471 326.17 618.111 317.034 617.248C300.736 615.757 284.59 612.917 268.762 608.758C268.186 608.614 267.539 608.47 266.963 608.326C253.98 604.941 241.26 600.613 228.906 595.376C228.26 595.089 227.54 594.873 226.964 594.585C226.244 594.297 225.597 594.081 225.021 593.793C224.301 593.506 223.654 593.218 223.008 592.93C217.613 590.556 212.361 587.966 207.109 585.304L204.661 584.009C199.986 581.563 195.381 579.044 190.849 576.238C189.268 575.375 187.614 574.368 186.03 573.361C184.231 572.282 182.433 571.13 180.704 569.979C180.276 569.691 179.845 569.404 179.412 569.116C175.382 566.382 171.283 563.648 167.398 560.699C164.665 558.684 162.002 556.742 159.34 554.655C157.611 553.36 155.887 551.993 154.232 550.555C153.154 549.763 152.076 548.828 150.994 547.892C149.557 546.669 148.117 545.446 146.68 544.151C144.449 542.352 142.363 540.338 140.346 538.467C132.246 531.002 124.583 523.075 117.398 514.725C114.953 511.991 112.649 509.257 110.421 506.38C109.902 505.813 109.421 505.212 108.981 504.581C72.7629 458.857 50.6344 403.579 45.2951 345.492C39.9558 287.405 51.6366 229.019 78.9125 177.458C106.188 125.897 147.88 83.3891 198.902 55.1206C249.923 26.8521 308.068 14.0448 366.244 18.2614C424.419 22.478 480.11 43.5362 526.523 78.8668C572.935 114.197 608.062 162.273 627.618 217.229C647.175 272.184 650.315 331.644 636.656 388.354C622.998 445.064 593.13 496.573 550.698 536.597Z" fill="#3F3D56"/>
<path d="M44.1912 450.721C7.14794 410.501 -11.9129 350.286 8.05964 299.385C37.4862 351.056 84.2408 390.652 140.051 411.169C161.604 419.003 186.391 425.473 198.098 445.191C205.383 457.461 205.9 472.818 202.598 486.7C199.297 500.582 192.515 513.347 185.8 525.938L185.758 529.499C133.298 514.081 81.2345 490.941 44.1912 450.721Z" fill="#D64D66"/>
<path d="M9.17447 299.657C15.4627 344.477 35.7133 386.176 67.0499 418.832C73.6712 425.981 81.3781 432.043 89.8868 436.793C98.3249 441.152 107.776 443.172 117.259 442.643C126.111 442.327 135.129 440.979 143.903 442.821C148.381 443.83 152.594 445.775 156.267 448.527C159.94 451.279 162.99 454.776 165.217 458.789C171.026 468.645 172.947 480 174.439 491.17C176.096 503.572 177.621 516.48 184.703 527.153C185.561 528.447 183.505 529.702 182.648 528.411C170.326 509.84 174.478 486.127 166.171 466.105C162.295 456.762 155.58 448.531 145.532 445.701C136.746 443.226 127.445 444.608 118.486 445.005C109.242 445.657 99.9802 444.035 91.5081 440.282C82.785 435.981 74.8574 430.226 68.0649 423.265C52.5228 407.838 39.5031 390.062 29.4827 370.59C17.9232 348.43 10.2397 324.457 6.76446 299.706C6.55 298.174 8.96127 298.135 9.17432 299.657L9.17447 299.657Z" fill="white"/>
<path d="M56.3406 408.911C50.148 413.425 42.5525 415.59 34.9106 415.021C27.2687 414.451 20.078 411.184 14.6227 405.803C13.5226 404.71 15.1689 402.949 16.2705 404.043C21.3413 409.064 28.0397 412.107 35.1569 412.622C42.2741 413.138 49.3413 411.093 55.0828 406.855C56.3316 405.936 57.5823 407.997 56.3406 408.911V408.911Z" fill="white"/>
<path d="M112.792 443.394C115.357 427.94 112.003 412.088 103.399 398.997C102.546 397.701 104.603 396.445 105.455 397.739C114.383 411.378 117.84 427.883 115.135 443.958C114.876 445.49 112.535 444.917 112.792 443.394V443.394Z" fill="white"/>
<path d="M21.1103 348.2C23.8703 346.953 26.2773 345.039 28.1152 342.632C29.953 340.225 31.1642 337.398 31.6399 334.407C31.8791 332.873 34.2206 333.447 33.9828 334.971C33.4419 338.274 32.1005 341.393 30.0758 344.058C28.0512 346.722 25.4049 348.85 22.3681 350.255C22.093 350.412 21.7686 350.458 21.4609 350.384C21.1531 350.31 20.8851 350.121 20.7114 349.856C20.5462 349.583 20.4954 349.256 20.5701 348.946C20.6448 348.636 20.8389 348.368 21.1103 348.2V348.2Z" fill="white"/>
<path d="M679.611 368.388C726.041 317.977 749.932 242.504 724.898 178.706C688.015 243.469 629.413 293.098 559.461 318.814C532.447 328.633 501.379 336.742 486.705 361.458C477.574 376.836 476.927 396.085 481.064 413.484C485.203 430.883 493.703 446.883 502.119 462.664L502.172 467.129C567.925 447.803 633.181 418.799 679.611 368.388Z" fill="#D64D66"/>
<path d="M723.501 179.046C715.619 235.223 690.237 287.488 650.96 328.418C642.492 337.136 633.143 345.242 622.336 350.931C611.76 356.394 599.914 358.926 588.028 358.263C576.933 357.868 565.63 356.178 554.633 358.486C543.041 360.919 533.868 368.405 527.918 378.501C520.637 390.854 518.23 405.087 516.359 419.087C514.282 434.631 512.371 450.809 503.494 464.188C502.419 465.809 504.997 467.383 506.07 465.765C521.515 442.488 516.31 412.766 526.722 387.67C531.58 375.96 539.997 365.643 552.591 362.096C563.604 358.994 575.261 360.726 586.491 361.224C598.283 361.747 609.508 360.298 620.304 355.304C631.349 350.196 641.034 342.438 649.688 333.976C669.168 314.639 685.487 292.359 698.046 267.953C712.535 240.178 722.165 210.129 726.521 179.107C726.79 177.186 723.768 177.138 723.501 179.046V179.046Z" fill="white"/>
<path d="M664.383 315.984C672.145 321.641 681.665 324.355 691.243 323.642C700.821 322.928 709.834 318.833 716.672 312.088C718.051 310.718 715.987 308.511 714.607 309.882C708.251 316.175 699.855 319.989 690.934 320.636C682.014 321.282 673.156 318.718 665.959 313.407C664.394 312.255 662.827 314.838 664.383 315.984V315.984Z" fill="white"/>
<path d="M593.627 359.204C590.412 339.835 594.616 319.966 605.4 303.558C606.47 301.933 603.892 300.359 602.823 301.981C591.633 319.077 587.301 339.763 590.69 359.911C591.015 361.832 593.95 361.114 593.627 359.204Z" fill="white"/>
<path d="M708.54 239.889C705.081 238.326 702.064 235.928 699.76 232.91C697.457 229.893 695.939 226.351 695.343 222.602C695.043 220.678 692.108 221.398 692.406 223.309C693.084 227.448 694.765 231.358 697.303 234.697C699.841 238.037 703.157 240.704 706.964 242.466C707.308 242.662 707.715 242.719 708.101 242.626C708.487 242.533 708.822 242.297 709.04 241.966C709.247 241.623 709.311 241.213 709.217 240.824C709.124 240.436 708.88 240.099 708.54 239.889V239.889Z" fill="white"/>
</svg>
