<svg width="673" height="655" viewBox="0 0 673 655" fill="none" xmlns="http://www.w3.org/2000/svg">
<g clip-path="url(#clip0_81_33)">
<path d="M633.164 180.568C626.864 169.199 619.873 158.227 612.232 147.712C606.878 140.335 601.221 133.205 595.26 126.32H595.245C584.46 113.857 572.73 102.244 560.16 91.5846C557.587 89.3992 554.98 87.2585 552.337 85.1626C528.487 66.184 502.038 50.7257 473.799 39.2601L474.049 80.5355L476.751 551.052H242.541L229.369 81.4232L230.351 40.807C115.525 89.1115 34.8998 202.684 34.8998 335.099C34.8784 362.43 38.3645 389.651 45.2726 416.094C48.1904 427.272 51.723 438.281 55.8542 449.069C57.3456 452.985 58.919 456.866 60.5744 460.713C61.3723 462.585 62.1852 464.442 63.0278 466.292C64.1091 468.708 65.2351 471.117 66.391 473.497C67.2858 475.369 68.2055 477.229 69.1501 479.076C70.3656 481.5 71.6208 483.904 72.9159 486.289C73.9151 488.161 74.9442 490.018 75.9882 491.868C92.8311 521.667 114.339 548.573 139.694 571.565C146.92 578.121 154.439 584.337 162.251 590.212C217.53 631.759 284.805 654.223 353.95 654.223C423.095 654.223 490.37 631.759 545.648 590.212C549.899 587.02 554.062 583.72 558.139 580.314C560.846 578.062 563.508 575.767 566.125 573.43C566.819 572.811 567.513 572.192 568.199 571.565C591.574 550.369 611.692 525.836 627.9 498.76C633.852 488.833 639.249 478.584 644.067 468.059C645.342 465.285 646.577 462.485 647.773 459.661C653.276 446.711 657.905 433.407 661.628 419.838C662.202 417.742 662.757 415.639 663.291 413.528V413.521C663.38 413.155 663.477 412.782 663.567 412.417C664.119 410.194 664.648 407.957 665.155 405.719V405.711C666.796 398.499 668.18 391.199 669.309 383.812C669.45 382.865 669.592 381.918 669.726 380.971C669.779 380.628 669.831 380.284 669.868 379.941V379.934C670.673 374.228 671.327 368.48 671.829 362.689C672.605 353.597 672.995 344.4 673 335.099C673.084 281.037 659.373 227.849 633.164 180.568Z" fill="#E9CED3"/>
<path d="M601.832 527.736C620.716 502.214 627.979 466.265 613.289 438.118C599.512 469.778 574.984 495.543 544.043 510.856C532.089 516.718 518.183 521.993 512.65 534.105C509.207 541.641 509.863 550.54 512.63 558.349C515.398 566.159 520.106 573.108 524.763 579.96L525.009 582.014C554.332 569.853 582.947 553.259 601.832 527.736Z" fill="#D64D66"/>
<path d="M612.662 438.344C611.816 464.612 602.717 489.945 586.657 510.745C583.279 515.284 579.207 519.263 574.59 522.534C569.99 525.574 564.66 527.328 559.154 527.612C554.025 527.979 548.736 527.761 543.785 529.369C541.264 530.23 538.952 531.615 537.003 533.432C535.054 535.249 533.51 537.457 532.474 539.913C529.733 545.964 529.33 552.639 529.162 559.181C528.976 566.444 528.897 573.991 525.472 580.594C525.057 581.394 526.322 581.991 526.737 581.192C532.696 569.705 528.826 556.271 532.378 544.196C534.035 538.561 537.4 533.391 543.024 531.133C547.942 529.159 553.396 529.379 558.592 529.051C563.968 528.854 569.214 527.342 573.871 524.649C578.639 521.624 582.858 517.809 586.346 513.368C594.359 503.495 600.771 492.424 605.345 480.559C610.641 467.047 613.588 452.728 614.056 438.222C614.085 437.324 612.691 437.452 612.662 438.344Z" fill="white"/>
<path d="M592.222 504.352C596.077 506.573 600.596 507.352 604.971 506.548C609.347 505.745 613.295 503.412 616.109 499.966C616.677 499.267 615.617 498.352 615.049 499.052C612.434 502.266 608.756 504.439 604.68 505.179C600.604 505.919 596.398 505.177 592.82 503.087C592.043 502.634 591.449 503.901 592.222 504.352Z" fill="white"/>
<path d="M561.779 527.768C559.338 519.005 560.29 509.644 564.443 501.552C564.855 500.75 563.59 500.153 563.179 500.953C558.872 509.382 557.902 519.126 560.461 528.239C560.706 529.107 562.022 528.631 561.779 527.768H561.779Z" fill="white"/>
<path d="M608.787 467.112C607.117 466.563 605.609 465.608 604.398 464.332C603.188 463.056 602.313 461.5 601.853 459.803C601.62 458.932 600.304 459.408 600.536 460.274C601.053 462.147 602.021 463.865 603.355 465.277C604.689 466.69 606.349 467.754 608.189 468.377C608.358 468.45 608.548 468.456 608.721 468.394C608.894 468.332 609.037 468.207 609.121 468.043C609.199 467.876 609.208 467.683 609.146 467.509C609.083 467.335 608.954 467.192 608.787 467.112Z" fill="white"/>
<path d="M508.169 415.718C508.299 416.266 508.429 416.814 508.552 417.371C510.265 424.749 511.377 432.254 511.875 439.812C511.923 440.395 511.963 440.988 511.994 441.572C513 459.793 510.616 478.043 504.962 495.393C502.706 502.295 499.928 509.016 496.653 515.497C492.129 524.446 486.511 533.79 485.245 543.428C485.101 544.432 485.02 545.444 485.002 546.459L522.485 582.154C522.611 582.192 522.729 582.239 522.855 582.278L524.287 583.772C524.479 583.449 524.671 583.111 524.864 582.788C524.976 582.602 525.08 582.407 525.192 582.221C525.264 582.094 525.336 581.966 525.409 581.856C525.433 581.814 525.457 581.771 525.473 581.738C525.545 581.627 525.601 581.517 525.665 581.415C526.746 579.526 527.816 577.625 528.874 575.714C528.883 575.706 528.883 575.706 528.882 575.689C536.91 561.106 543.79 545.725 548.118 529.788C548.248 529.309 548.387 528.821 548.5 528.325C550.411 521.131 551.731 513.792 552.446 506.382C552.825 502.324 552.998 498.249 552.965 494.173C552.859 483.641 551.098 473.192 547.745 463.208C541.059 443.305 528.084 425.764 509.589 416.418C509.115 416.18 508.65 415.948 508.169 415.718Z" fill="#D64D66"/>
<path d="M507.8 416.274C522.936 437.757 530.919 463.464 530.616 489.743C530.652 495.402 529.795 501.031 528.078 506.422C526.235 511.62 523.035 516.23 518.809 519.773C514.935 523.155 510.581 526.166 507.596 530.431C506.101 532.637 505.089 535.135 504.626 537.759C504.164 540.384 504.261 543.077 504.911 545.661C506.365 552.143 510.061 557.716 513.865 563.04C518.088 568.952 522.568 575.025 523.808 582.359C523.958 583.248 525.328 582.963 525.178 582.076C523.021 569.315 511.846 560.92 507.412 549.139C505.344 543.642 504.919 537.488 508.05 532.298C510.788 527.76 515.276 524.651 519.228 521.261C523.401 517.865 526.679 513.499 528.777 508.544C530.763 503.258 531.835 497.671 531.947 492.025C532.403 479.316 530.857 466.615 527.368 454.387C523.463 440.409 517.197 427.202 508.84 415.338C508.322 414.603 507.286 415.545 507.8 416.274Z" fill="white"/>
<path d="M531.212 481.287C535.627 480.739 539.703 478.64 542.714 475.363C545.724 472.087 547.471 467.847 547.645 463.4C547.676 462.5 546.28 462.408 546.248 463.309C546.095 467.45 544.466 471.4 541.657 474.445C538.848 477.491 535.042 479.431 530.928 479.917C530.034 480.023 530.323 481.393 531.212 481.287H531.212Z" fill="white"/>
<path d="M520.999 518.317C513.776 512.79 508.901 504.743 507.346 495.78C507.193 494.892 505.823 495.177 505.976 496.064C507.612 505.387 512.702 513.751 520.231 519.486C520.949 520.032 521.713 518.86 520.999 518.317V518.317Z" fill="white"/>
<path d="M522.022 441.577C520.358 442.145 518.579 442.291 516.845 442.001C515.11 441.712 513.475 440.995 512.086 439.917C511.375 439.362 510.612 440.536 511.318 441.087C512.858 442.271 514.665 443.06 516.581 443.384C518.496 443.708 520.462 443.558 522.306 442.948C522.485 442.905 522.64 442.795 522.741 442.642C522.842 442.488 522.881 442.302 522.849 442.121C522.811 441.939 522.702 441.781 522.547 441.679C522.393 441.577 522.204 441.541 522.022 441.577Z" fill="white"/>
<path d="M14.8945 384.794C-1.85371 357.821 -6.1715 321.4 10.7565 294.541C21.9152 327.216 44.2693 354.89 73.8636 372.666C85.3017 379.481 98.733 385.869 103.264 398.39C106.083 406.182 104.707 414.998 101.314 422.556C97.9202 430.115 92.6638 436.658 87.4647 443.109L87.0532 445.136C58.8147 430.632 31.6427 411.767 14.8945 384.794Z" fill="#D64D66"/>
<path d="M11.3627 294.817C10.0718 321.066 17.0828 347.055 31.3998 369.092C34.3977 373.891 38.1331 378.187 42.4685 381.823C46.8062 385.227 51.9762 387.408 57.4415 388.138C62.5237 388.922 67.8129 389.134 72.6161 391.14C75.0596 392.203 77.2508 393.77 79.0461 395.74C80.8413 397.709 82.2001 400.036 83.0332 402.568C85.2733 408.822 85.1332 415.508 84.7689 422.041C84.3646 429.295 83.8296 436.824 86.707 443.683C87.0556 444.514 85.746 445.007 85.3979 444.177C80.3918 432.243 85.3398 419.169 82.7815 406.844C81.5877 401.093 78.654 395.667 73.2319 392.96C68.4906 390.592 63.0365 390.368 57.8838 389.619C52.5419 388.985 47.4364 387.052 43.0135 383.989C38.507 380.586 34.6123 376.441 31.4962 371.732C24.3118 361.24 18.8213 349.684 15.2257 337.487C11.045 323.589 9.27191 309.078 9.98324 294.582C10.0276 293.685 11.4068 293.925 11.3627 294.817L11.3627 294.817Z" fill="white"/>
<path d="M26.3722 362.268C22.3496 364.169 17.7826 364.577 13.4866 363.421C9.19067 362.264 5.44558 359.618 2.92017 355.955C2.41173 355.212 3.54216 354.386 4.05129 355.13C6.39665 358.546 9.88546 361.011 13.888 362.079C17.8906 363.148 22.1433 362.751 25.8786 360.958C26.6908 360.57 27.1797 361.882 26.3722 362.268Z" fill="white"/>
<path d="M54.8124 388.081C57.9566 379.545 57.7689 370.138 54.2868 361.735C53.9411 360.903 55.2506 360.41 55.5959 361.241C59.2031 369.992 59.3786 379.783 56.0871 388.658C55.7728 389.503 54.4998 388.922 54.8124 388.081Z" fill="white"/>
<path d="M12.8875 323.804C14.5971 323.393 16.1779 322.564 17.4879 321.391C18.7979 320.218 19.7961 318.738 20.3929 317.083C20.6963 316.234 21.969 316.816 21.6676 317.66C20.9998 319.485 19.8954 321.118 18.4509 322.417C17.0065 323.717 15.2658 324.643 13.3811 325.114C13.2072 325.173 13.0172 325.164 12.8498 325.088C12.6824 325.012 12.5501 324.876 12.4798 324.706C12.4153 324.532 12.4219 324.34 12.4983 324.171C12.5746 324.002 12.7145 323.871 12.8875 323.804Z" fill="white"/>
<path d="M117.349 280.76C117.175 281.295 117 281.831 116.833 282.376C114.526 289.59 112.808 296.98 111.697 304.472C111.602 305.05 111.515 305.637 111.436 306.217C108.952 324.296 109.846 342.679 114.071 360.432C115.759 367.495 117.982 374.419 120.72 381.144C124.502 390.432 129.342 400.202 129.821 409.911C129.882 410.923 129.881 411.939 129.817 412.951L89.5577 445.481C89.4291 445.509 89.3075 445.547 89.1784 445.575L87.6304 446.947C87.4649 446.61 87.3006 446.257 87.1351 445.92C87.0383 445.725 86.9505 445.523 86.8538 445.328C86.7921 445.195 86.7308 445.063 86.6676 444.947C86.6469 444.903 86.6266 444.858 86.6133 444.824C86.5501 444.708 86.5037 444.593 86.4479 444.487C85.5238 442.516 84.6119 440.535 83.7123 438.544C83.7049 438.534 83.7049 438.534 83.7065 438.518C76.8906 423.331 71.2825 407.441 68.2638 391.205C68.1732 390.717 68.0746 390.219 68.0023 389.716C66.6823 382.39 65.963 374.968 65.8518 367.525C65.804 363.449 65.9625 359.373 66.3268 355.314C67.2881 344.825 69.8927 334.554 74.0452 324.875C82.3259 305.582 96.6833 289.153 115.877 281.342C116.368 281.143 116.851 280.95 117.349 280.76Z" fill="#D64D66"/>
<path d="M117.671 281.344C100.84 301.525 90.7946 326.498 88.9611 352.715C88.4663 358.352 88.8628 364.032 90.1362 369.546C91.5501 374.876 94.3654 379.731 98.2895 383.605C101.876 387.291 105.971 390.646 108.599 395.14C109.91 397.46 110.716 400.032 110.964 402.685C111.212 405.339 110.896 408.015 110.038 410.538C108.062 416.88 103.925 422.134 99.7019 427.132C95.0125 432.68 90.0537 438.369 88.2224 445.579C88.0005 446.452 86.6585 446.057 86.88 445.184C90.0661 432.641 101.887 425.182 107.263 413.801C109.771 408.49 110.695 402.391 107.995 396.964C105.635 392.218 101.415 388.755 97.7513 385.054C93.8678 381.331 90.9549 376.713 89.267 371.604C87.7171 366.173 87.1025 360.518 87.4494 354.881C88.0281 342.178 90.6001 329.644 95.0712 317.74C100.099 304.126 107.418 291.472 116.711 280.326C117.287 279.636 118.243 280.659 117.671 281.344V281.344Z" fill="white"/>
<path d="M89.0547 344.239C84.6988 343.334 80.8063 340.91 78.0724 337.399C75.3384 333.889 73.941 329.521 74.1297 325.075C74.139 324.894 74.2184 324.723 74.351 324.599C74.4836 324.475 74.6591 324.408 74.8405 324.411C75.0219 324.414 75.195 324.487 75.3235 324.615C75.4519 324.744 75.5256 324.917 75.5289 325.098C75.3456 329.238 76.6477 333.307 79.2002 336.57C81.7528 339.834 85.3876 342.078 89.4487 342.896C90.3311 343.075 89.932 344.417 89.0547 344.239Z" fill="white"/>
<path d="M96.2251 381.976C103.873 377.054 109.386 369.43 111.664 360.624C111.889 359.751 113.231 360.146 113.006 361.018C110.619 370.178 104.866 378.1 96.8957 383.204C96.1357 383.69 95.4692 382.459 96.2251 381.976V381.976Z" fill="white"/>
<path d="M101.44 305.407C103.053 306.109 104.814 306.398 106.566 306.251C108.318 306.103 110.006 305.522 111.478 304.561C112.232 304.065 112.898 305.297 112.149 305.789C110.518 306.844 108.653 307.483 106.717 307.65C104.782 307.818 102.835 307.509 101.046 306.75C100.872 306.693 100.725 306.571 100.637 306.41C100.549 306.248 100.526 306.06 100.572 305.882C100.625 305.704 100.746 305.555 100.909 305.466C101.071 305.377 101.262 305.356 101.44 305.407Z" fill="white"/>
<path d="M325.794 109.465C350.275 109.465 370.12 89.6145 370.12 65.1282C370.12 40.6418 350.275 20.7917 325.794 20.7917C301.313 20.7917 281.468 40.6418 281.468 65.1282C281.468 89.6145 301.313 109.465 325.794 109.465Z" fill="#FF6584"/>
<path d="M461.511 62.8145C457.517 58.5942 453.3 54.5905 448.879 50.8208C440.244 43.4963 430.684 37.2682 420.027 33.3449C416.016 31.8629 411.87 30.7714 407.649 30.0854C407.142 30.0034 406.642 29.9213 406.135 29.8541C406.098 29.8504 406.06 29.8504 406.023 29.8541C405.945 29.8321 405.865 29.8171 405.785 29.8094C404.748 29.6751 403.711 29.5707 402.667 29.4961C397.045 29.1223 391.399 29.6307 385.934 31.0028C382.763 31.803 379.669 32.8812 376.687 34.225C373.7 35.6877 370.804 37.3291 368.014 39.1403C366.516 40.0505 364.973 40.8844 363.391 41.639C358.772 43.8282 353.882 45.3934 348.85 46.2933C345.452 46.9031 342.011 47.2423 338.559 47.3077C335.561 47.3674 332.735 47.4718 329.894 48.5533C326.862 49.6929 324.138 51.5261 321.941 53.9066C319.744 56.287 318.134 59.1486 317.239 62.2626C317.169 62.5391 317.189 62.8309 317.296 63.0954C317.403 63.3598 317.593 63.5829 317.836 63.7319C318.604 64.2839 319.35 64.9104 320.163 65.4027C320.88 65.7302 321.645 65.9392 322.429 66.0218C323.712 66.2903 324.997 66.5514 326.285 66.805C331.02 67.7448 335.775 68.5777 340.55 69.3037C350.155 70.7581 359.814 71.7825 369.528 72.3767C369.588 72.3854 369.647 72.3903 369.707 72.3916C380.682 73.0541 391.682 73.1612 402.667 72.7123C404.33 72.6452 405.986 72.5632 407.649 72.4662C414.576 72.0783 421.487 71.4667 428.379 70.6313C434.755 69.8556 441.106 68.8934 447.432 67.7448C451.951 66.9243 456.453 66.0094 460.937 64.9999C461.155 64.9355 461.352 64.816 461.51 64.6529C461.668 64.4898 461.782 64.2887 461.839 64.069C461.897 63.8493 461.897 63.6184 461.84 63.3987C461.782 63.1789 461.669 62.9777 461.511 62.8145Z" fill="#E6E6E6"/>
<path d="M369.379 121.933C362.962 115.067 355.892 108.841 348.268 103.346C345.74 101.57 343.138 99.8996 340.461 98.3705C337.179 96.4755 333.77 94.8083 330.259 93.3806C329.476 93.0599 328.686 92.7541 327.896 92.4632C323.405 90.7995 318.747 89.6291 314.003 88.9725C313.966 88.965 313.929 88.9725 313.891 88.965C313.817 88.9501 313.735 88.9352 313.66 88.9203C311.361 88.622 309.044 88.48 306.725 88.4951C305.062 88.4951 303.392 88.5847 301.736 88.7487C299.062 89.0123 296.41 89.471 293.802 90.1211C292.512 90.4419 291.229 90.8148 289.969 91.2399C288.131 91.845 286.326 92.5471 284.563 93.3433C284.533 93.3583 284.51 93.3657 284.481 93.3806C281.52 94.8293 278.651 96.4584 275.89 98.2587C275.83 98.296 275.763 98.3333 275.704 98.3705C272.568 100.247 269.25 101.801 265.801 103.01C262.84 104.045 259.803 104.849 256.718 105.412C253.32 106.023 249.879 106.36 246.427 106.419C243.429 106.478 240.603 106.583 237.77 107.672C234.737 108.811 232.012 110.644 229.813 113.024C227.615 115.405 226.003 118.267 225.108 121.381C225.038 121.657 225.059 121.949 225.166 122.213C225.273 122.477 225.462 122.7 225.704 122.85C226.472 123.402 227.225 124.021 228.031 124.514C228.747 124.844 229.513 125.053 230.298 125.133C231.58 125.401 232.863 125.67 234.153 125.923C238.888 126.863 243.646 127.694 248.426 128.415C254.981 129.407 261.563 130.2 268.172 130.794C271.304 131.085 274.438 131.323 277.575 131.51C285.622 131.995 293.675 132.184 301.736 132.077C303.399 132.054 305.062 132.017 306.725 131.965C316.598 131.674 326.441 130.933 336.255 129.742C347.193 128.418 358.057 126.539 368.805 124.111C369.022 124.047 369.22 123.928 369.378 123.766C369.536 123.604 369.649 123.403 369.707 123.184C369.764 122.965 369.765 122.735 369.707 122.515C369.65 122.296 369.537 122.096 369.379 121.933Z" fill="#E6E6E6"/>
<path d="M258.893 2.94359L297.943 542.705L219.842 549.639V9.81089C229.149 2.53972 242.508 1.40212 258.893 2.94359Z" fill="#B69A9F"/>
<path d="M451.651 2.94359L412.601 542.705L490.702 549.639V9.81089C481.395 2.53972 468.036 1.40212 451.651 2.94359Z" fill="#B69A9F"/>
<path d="M492.539 10.0465C490.116 4.1031 484.963 0 479.005 0H230.707C222.422 0 215.689 7.95088 215.689 17.7332V554.212C215.616 559.175 217.472 563.973 220.864 567.596C222.639 569.46 224.886 570.808 227.366 571.496C228.454 571.797 229.578 571.948 230.707 571.945H479.005C480.134 571.948 481.258 571.797 482.345 571.496C489.027 569.7 494.023 562.639 494.023 554.212V17.7332C494.03 15.0991 493.526 12.4886 492.539 10.0465ZM489.042 554.212C489.042 560.745 484.538 566.064 479.005 566.064H230.707C226.121 566.064 222.236 562.41 221.05 557.435C220.797 556.379 220.669 555.298 220.67 554.212V17.7332C220.67 11.1999 225.174 5.89056 230.707 5.89056H479.005C480.023 5.88976 481.033 6.07167 481.988 6.42766C486.067 7.92452 489.042 12.4238 489.042 17.7332V554.212Z" fill="#B69A9F"/>
<path d="M491.533 163.071H218.181V168.057H491.533V163.071Z" fill="#B69A9F"/>
<path d="M491.533 60.1397H218.181V65.126H491.533V60.1397Z" fill="#B69A9F"/>
<path d="M491.533 246.176H218.181V251.162H491.533V246.176Z" fill="#B69A9F"/>
<path d="M306.886 2.23761H301.901V316.815H306.886V2.23761Z" fill="#B69A9F"/>
<path d="M407.812 2.23761H402.827V316.815H407.812V2.23761Z" fill="#B69A9F"/>
<path d="M522.688 540.783H195.331C189.384 540.79 183.683 543.156 179.478 547.362C175.273 551.568 172.907 557.27 172.9 563.219C172.897 566.079 173.447 568.913 174.518 571.565C176.184 575.725 179.056 579.291 182.765 581.803C186.475 584.316 190.851 585.66 195.331 585.662H522.688C526.604 585.661 530.451 584.634 533.847 582.684C537.244 580.735 540.07 577.93 542.047 574.548C542.609 573.593 543.098 572.595 543.508 571.565C544.58 568.913 545.129 566.079 545.126 563.219C545.118 557.27 542.751 551.567 538.544 547.361C534.338 543.155 528.636 540.789 522.688 540.783Z" fill="#B69A9F"/>
<path d="M491.533 305.181H219.842V321.801H491.533V305.181Z" fill="#B69A9F"/>
<path d="M353.195 300.194H358.18C360.604 300.194 362.929 301.157 364.643 302.872C366.356 304.586 367.319 306.911 367.319 309.336H344.055C344.055 308.135 344.292 306.946 344.751 305.837C345.21 304.728 345.884 303.721 346.732 302.872C347.581 302.023 348.588 301.35 349.697 300.89C350.806 300.431 351.995 300.194 353.195 300.194Z" fill="#CCCCCC"/>
<path d="M360.48 352.056C388.917 352.056 411.97 328.998 411.97 300.554C411.97 272.111 388.917 249.053 360.48 249.053C332.044 249.053 308.991 272.111 308.991 300.554C308.991 328.998 332.044 352.056 360.48 352.056Z" fill="#A0616A"/>
<path d="M303.042 251.01C303.432 245.096 307.342 239.044 319.765 235.881C319.765 235.881 341.086 208.611 370.059 222.912C370.059 222.912 384.104 220.495 394.519 235.071C394.519 235.071 404.846 228.98 409.202 239.777C409.202 239.777 421.313 261.801 416.854 284.266C412.396 306.73 410.113 309.533 410.113 309.533C410.113 309.533 415.797 263.066 383.063 266.288C350.329 269.51 323.975 257.996 316.562 283.206C310.407 304.139 311.182 315.011 311.182 315.011C311.182 315.011 290.598 294.128 297.597 277.685C301.177 269.274 302.442 260.131 303.042 251.01Z" fill="#2F2E41"/>
<path d="M220.461 582.007H505.262C503.359 560.278 502.115 477.215 502.115 471.748C502.115 447.636 482.389 421.322 482.389 421.322L475.328 417.418L416.365 399.018L401.105 379.192C399.508 377.11 397.449 375.427 395.091 374.275C392.733 373.124 390.14 372.535 387.516 372.555L339.313 372.917C335.071 372.949 330.995 374.565 327.882 377.448L298.033 405.144L254.255 426.055L254.18 425.98L253.723 426.321L247.226 431.001L243.047 434.021C243.047 434.021 232.083 447.178 223.321 486.638C222.003 492.573 221.078 569.403 220.461 582.007Z" fill="#00B3DD"/>
<path d="M571.181 571.565C570.495 572.192 569.802 572.811 569.108 573.43C566.483 575.764 563.821 578.059 561.122 580.314C557.043 583.715 552.879 587.015 548.631 590.212H165.234C157.427 584.349 149.908 578.134 142.677 571.565H571.181Z" fill="#B69A9F"/>
<path d="M430.646 576.04H289.708L292.69 561.869H427.663L430.646 576.04Z" fill="#2F2E41"/>
<path d="M558.154 514.878H521.48C520.652 514.876 519.834 515.055 519.083 515.403C518.332 515.751 517.666 516.259 517.133 516.892C516.622 516.793 516.102 516.743 515.582 516.743C514.439 516.742 513.307 516.966 512.25 517.403C511.194 517.84 510.234 518.48 509.425 519.288C508.617 520.096 507.975 521.056 507.537 522.112C507.1 523.168 506.874 524.3 506.874 525.444C506.874 526.587 507.1 527.719 507.537 528.775C507.975 529.831 508.617 530.791 509.425 531.599C510.234 532.407 511.194 533.048 512.25 533.484C513.307 533.921 514.439 534.145 515.582 534.144C516.895 534.144 518.191 533.843 519.37 533.264L519.981 540.783L522.412 570.498C522.528 570.869 522.683 571.227 522.875 571.565C523.366 572.467 524.091 573.221 524.975 573.746C525.858 574.271 526.866 574.548 527.893 574.548H551.741C552.769 574.547 553.778 574.27 554.662 573.745C555.546 573.22 556.273 572.467 556.767 571.565C556.953 571.225 557.106 570.868 557.222 570.498L563.635 522.3C563.899 521.442 563.958 520.534 563.807 519.649C563.656 518.765 563.299 517.928 562.766 517.206C562.233 516.484 561.538 515.897 560.737 515.493C559.936 515.089 559.051 514.878 558.154 514.878ZM515.582 531.661C513.934 531.659 512.355 531.003 511.191 529.837C510.027 528.671 509.373 527.091 509.373 525.444C509.373 523.796 510.027 522.216 511.191 521.05C512.355 519.884 513.934 519.229 515.582 519.227C515.693 519.227 515.798 519.257 515.91 519.264C515.664 520.265 515.695 521.315 515.999 522.3L518.624 530.833C517.7 531.37 516.651 531.655 515.582 531.661Z" fill="#3F3D56"/>
<path d="M475.321 357.177H243.168C241.173 357.18 239.261 357.974 237.851 359.385C236.441 360.796 235.647 362.708 235.644 364.703V521.397C235.646 523.393 236.439 525.306 237.85 526.717C239.26 528.128 241.173 528.921 243.168 528.923H475.321C477.316 528.921 479.229 528.128 480.639 526.717C482.05 525.306 482.843 523.393 482.845 521.397V364.703C482.842 362.708 482.048 360.796 480.638 359.385C479.228 357.974 477.316 357.18 475.321 357.177Z" fill="#3F3D56"/>
<path d="M385.389 482.731H331.079C330.311 482.732 329.574 483.038 329.032 483.582C328.489 484.127 328.185 484.864 328.186 485.632V571.446H388.29V485.632C388.29 485.251 388.215 484.874 388.069 484.522C387.924 484.17 387.71 483.85 387.44 483.58C387.171 483.311 386.851 483.097 386.499 482.951C386.147 482.806 385.77 482.731 385.389 482.731ZM358.417 531.489C356.718 531.481 355.092 530.803 353.891 529.601C352.69 528.4 352.012 526.773 352.004 525.074V515.177C352.006 513.477 352.682 511.847 353.885 510.646C355.087 509.444 356.717 508.769 358.417 508.769C360.116 508.769 361.746 509.444 362.949 510.646C364.151 511.847 364.828 513.477 364.83 515.177V525.074C364.822 526.773 364.144 528.4 362.943 529.601C361.742 530.803 360.115 531.481 358.417 531.489Z" fill="#2F2E41"/>
<path d="M327.999 568.701V576.98C328 577.409 328.171 577.82 328.474 578.124C328.778 578.427 329.189 578.598 329.618 578.599H386.858C387.286 578.597 387.697 578.425 388 578.122C388.303 577.819 388.474 577.409 388.476 576.98V568.701H327.999Z" fill="#3F3D56"/>
<path d="M470.384 519.759C472.408 519.759 474.049 518.118 474.049 516.093C474.049 514.069 472.408 512.427 470.384 512.427C468.36 512.427 466.719 514.069 466.719 516.093C466.719 518.118 468.36 519.759 470.384 519.759Z" fill="#2F2E41"/>
<path d="M272.474 510.776C272.306 510.776 272.139 510.809 271.983 510.874C271.828 510.938 271.686 511.032 271.567 511.152C271.448 511.271 271.354 511.412 271.289 511.568C271.225 511.723 271.191 511.89 271.191 512.059V518.66C271.192 519 271.328 519.325 271.568 519.565C271.809 519.805 272.135 519.939 272.474 519.939C272.814 519.939 273.139 519.805 273.38 519.565C273.62 519.325 273.756 519 273.757 518.66V512.059C273.757 511.89 273.724 511.723 273.659 511.568C273.595 511.412 273.5 511.271 273.381 511.152C273.262 511.032 273.121 510.938 272.965 510.873C272.809 510.809 272.643 510.776 272.474 510.776Z" fill="#2F2E41"/>
<path d="M279.439 510.776C279.271 510.776 279.104 510.809 278.948 510.874C278.793 510.938 278.651 511.032 278.532 511.152C278.413 511.271 278.319 511.412 278.254 511.568C278.19 511.723 278.156 511.89 278.156 512.059V518.66C278.156 519 278.292 519.326 278.532 519.567C278.773 519.808 279.099 519.943 279.439 519.943C279.779 519.943 280.106 519.808 280.346 519.567C280.587 519.326 280.722 519 280.722 518.66V512.059C280.722 511.89 280.689 511.723 280.624 511.568C280.56 511.412 280.465 511.271 280.346 511.152C280.227 511.032 280.086 510.938 279.93 510.874C279.774 510.809 279.608 510.776 279.439 510.776Z" fill="#2F2E41"/>
<path d="M286.404 510.776C286.236 510.776 286.069 510.809 285.913 510.874C285.757 510.938 285.616 511.032 285.497 511.152C285.378 511.271 285.283 511.412 285.219 511.568C285.154 511.723 285.121 511.89 285.121 512.059V518.66C285.122 519 285.258 519.325 285.498 519.565C285.739 519.805 286.064 519.939 286.404 519.939C286.744 519.939 287.069 519.805 287.31 519.565C287.55 519.325 287.686 519 287.687 518.66V512.059C287.687 511.89 287.653 511.723 287.589 511.568C287.524 511.412 287.43 511.271 287.311 511.152C287.192 511.032 287.05 510.938 286.895 510.873C286.739 510.809 286.572 510.776 286.404 510.776Z" fill="#2F2E41"/>
<path d="M293.369 510.776C293.2 510.776 293.034 510.809 292.878 510.874C292.722 510.938 292.581 511.032 292.462 511.152C292.343 511.271 292.248 511.412 292.184 511.568C292.119 511.723 292.086 511.89 292.086 512.059V518.66C292.087 519 292.223 519.325 292.463 519.565C292.704 519.805 293.029 519.939 293.369 519.939C293.708 519.939 294.034 519.805 294.275 519.565C294.515 519.325 294.651 519 294.651 518.66V512.059C294.651 511.89 294.618 511.723 294.554 511.568C294.489 511.412 294.395 511.271 294.276 511.152C294.157 511.032 294.015 510.938 293.86 510.874C293.704 510.809 293.537 510.776 293.369 510.776Z" fill="#2F2E41"/>
<path d="M298.926 572.311C309.634 572.311 318.314 563.628 318.314 552.918C318.314 542.208 309.634 533.525 298.926 533.525C288.218 533.525 279.538 542.208 279.538 552.918C279.538 563.628 288.218 572.311 298.926 572.311Z" fill="#A0616A"/>
<path d="M434.374 576.04C445.082 576.04 453.763 567.358 453.763 556.647C453.763 545.937 445.082 537.255 434.374 537.255C423.666 537.255 414.986 545.937 414.986 556.647C414.986 567.358 423.666 576.04 434.374 576.04Z" fill="#A0616A"/>
<path d="M634.497 322.57C632.581 319.4 630.311 316.016 626.755 314.981C622.638 313.783 618.408 316.164 614.82 318.513C604.091 325.54 593.759 333.154 583.87 341.322L583.881 341.445C591.58 340.914 597.969 361.389 605.667 360.858C611.229 360.475 618.292 339.032 623.207 336.4C625.073 335.401 626.891 334.067 629.004 333.974C631.63 333.859 633.92 335.693 635.719 337.61C646.363 348.947 649.443 366.284 661.385 376.244C653.855 357.67 644.864 339.722 634.497 322.57Z" fill="#3F3D56"/>
<path d="M654.984 350.106C660.599 360.25 666.555 370.193 672.851 379.934V379.941C672.814 380.284 672.761 380.628 672.709 380.971C671.949 379.807 671.195 378.638 670.45 377.465C664.797 368.597 659.426 359.559 654.335 350.352C651.919 345.974 649.562 341.561 647.266 337.113C645.491 333.667 643.753 330.201 642.053 326.715C641.568 325.716 641.099 324.717 640.629 323.71C639.525 321.353 638.437 318.981 637.273 316.654C635.946 313.998 634.328 311.224 631.889 309.441C630.78 308.595 629.453 308.083 628.064 307.964C626.106 307.976 624.19 308.525 622.523 309.553C609.909 316.185 598.134 324.306 587.453 333.742C576.758 343.14 567.198 353.756 558.967 365.374C558.713 365.732 558.117 365.389 558.37 365.024C559.377 363.607 560.391 362.212 561.435 360.824C574.374 343.614 590.238 328.815 608.303 317.101C611.338 315.132 614.432 313.255 617.587 311.47C619.175 310.567 620.771 309.68 622.396 308.844C623.952 307.932 625.698 307.391 627.497 307.263C633.686 307.166 636.893 314.177 639.093 318.891C639.779 320.375 640.477 321.857 641.188 323.337C643.865 328.931 646.647 334.48 649.533 339.985C651.307 343.378 653.124 346.752 654.984 350.106Z" fill="#3F3D56"/>
<path d="M586.844 330.279C586.484 329.878 586.127 329.477 585.765 329.076C582.912 325.92 579.85 322.8 575.932 320.99C574.063 320.1 572.024 319.627 569.954 319.604C567.819 319.663 565.714 320.122 563.748 320.958C562.814 321.331 561.9 321.755 561 322.206C559.972 322.724 558.962 323.276 557.956 323.833C556.069 324.877 554.207 325.968 552.369 327.104C548.711 329.365 545.168 331.798 541.74 334.404C539.963 335.756 538.222 337.151 536.519 338.591C534.934 339.929 533.381 341.303 531.86 342.712C531.535 343.012 531.05 342.527 531.375 342.227C531.776 341.853 532.181 341.482 532.586 341.116C533.732 340.08 534.895 339.065 536.077 338.069C538.232 336.25 540.442 334.502 542.709 332.824C546.233 330.212 549.879 327.778 553.646 325.521C555.529 324.394 557.437 323.314 559.372 322.282C559.956 321.97 560.547 321.666 561.144 321.377C562.501 320.693 563.91 320.119 565.358 319.661C567.41 318.998 569.581 318.784 571.722 319.036C573.79 319.337 575.783 320.026 577.594 321.068C581.442 323.219 584.426 326.545 587.33 329.791C587.623 330.121 587.139 330.609 586.844 330.279Z" fill="#3F3D56"/>
<path d="M558.69 345.466C557.712 345.514 556.746 345.237 555.942 344.678C553.812 343.065 553.868 339.19 556.112 332.831C556.723 331.108 557.68 329.529 558.925 328.19C560.17 326.852 561.676 325.783 563.35 325.05C564.918 324.349 566.615 323.981 568.333 323.971C570.051 323.961 571.752 324.308 573.329 324.991C573.604 325.11 573.875 325.238 574.143 325.376C575.968 326.398 577.678 327.612 579.246 328.997C580.578 330.153 581.999 331.203 583.496 332.137L583.995 332.43L583.522 332.763C571.442 341.27 563.252 345.466 558.69 345.466Z" fill="#3F3D56"/>
<path d="M605.141 294.844C601.169 294.843 597.32 293.464 594.251 290.941C591.182 288.419 589.084 284.909 588.314 281.011C584.993 281.684 581.945 283.326 579.556 285.729C577.166 288.133 575.542 291.19 574.888 294.516C574.235 297.841 574.58 301.286 575.882 304.416C577.184 307.545 579.383 310.219 582.202 312.099C585.022 313.98 588.335 314.983 591.723 314.981C595.112 314.98 598.424 313.975 601.242 312.093C604.06 310.211 606.258 307.536 607.558 304.406C608.857 301.275 609.201 297.83 608.545 294.505C607.424 294.731 606.284 294.844 605.141 294.844Z" fill="#3F3D56"/>
<path opacity="0.74" d="M146.027 322.441C160.162 322.441 171.621 310.98 171.621 296.841C171.621 282.702 160.162 271.241 146.027 271.241C131.891 271.241 120.432 282.702 120.432 296.841C120.432 310.98 131.891 322.441 146.027 322.441Z" fill="#3F3D56"/>
<path opacity="0.74" d="M171.621 322.441C185.757 322.441 197.216 310.98 197.216 296.841C197.216 282.702 185.757 271.241 171.621 271.241C157.486 271.241 146.027 282.702 146.027 296.841C146.027 310.98 157.486 322.441 171.621 322.441Z" fill="#00B3DD"/>
<path opacity="0.74" d="M159.041 302.038C173.176 302.038 184.635 290.576 184.635 276.438C184.635 262.299 173.176 250.837 159.041 250.837C144.905 250.837 133.446 262.299 133.446 276.438C133.446 290.576 144.905 302.038 159.041 302.038Z" fill="#FF6584"/>
<path d="M225.967 269.102L160.225 289.76L160.672 291.183L226.414 270.525L225.967 269.102Z" fill="#3F3D56"/>
<path d="M226.386 272.558C228.033 272.558 229.369 271.222 229.369 269.575C229.369 267.927 228.033 266.591 226.386 266.591C224.738 266.591 223.403 267.927 223.403 269.575C223.403 271.222 224.738 272.558 226.386 272.558Z" fill="#3F3D56"/>
<path d="M653.179 403.824C657.549 406.905 661.747 410.045 666.55 412.417C666.46 412.782 666.363 413.155 666.274 413.521C665.685 413.245 665.11 412.954 664.536 412.656C659.667 410.105 655.476 406.636 650.905 403.623C648.639 402.056 646.163 400.816 643.552 399.938C640.83 399.12 637.985 398.787 635.148 398.954C623.314 399.535 613.172 406.599 602.173 410.157C596.789 411.902 591.062 412.834 585.447 411.738C579.832 410.642 574.843 407.658 569.884 404.958C564.992 402.288 559.66 399.603 553.948 399.603C549.295 399.61 544.403 401.475 541.912 405.592C541.835 405.715 541.713 405.803 541.572 405.837C541.43 405.872 541.281 405.85 541.156 405.776C541.031 405.702 540.94 405.582 540.901 405.442C540.863 405.302 540.88 405.152 540.95 405.025C541.508 404.087 542.193 403.231 542.986 402.482C546.238 399.401 551.017 398.185 555.41 398.543C561.092 399.006 566.275 401.691 571.189 404.391C576.401 407.255 581.741 410.336 587.766 410.962C593.717 411.589 599.608 410.03 605.126 407.934C615.812 403.869 626.356 397.096 638.243 397.85C643.85 398.208 648.653 400.639 653.179 403.824Z" fill="#3F3D56"/>
<path d="M185.443 188.109V189.623C184.942 189.524 184.432 189.474 183.922 189.474H176.122V206.226C176.12 208.706 175.134 211.085 173.381 212.838C171.628 214.592 169.25 215.578 166.77 215.579H155.242V218.16C155.242 219.195 155.447 220.219 155.846 221.174H154.25C153.916 220.204 153.748 219.186 153.75 218.16V215.579H147.412V214.088H153.75V197.335C153.752 194.855 154.737 192.477 156.491 190.723C158.244 188.969 160.622 187.983 163.102 187.982H174.63V185.371H176.122V187.982H183.922C184.431 187.982 184.94 188.025 185.443 188.109Z" fill="#00B3DD"/>
<path d="M166.77 176.048H145.95C143.471 176.049 141.093 177.035 139.34 178.789C137.586 180.543 136.601 182.921 136.599 185.401V206.226C136.601 208.706 137.586 211.085 139.34 212.838C141.093 214.592 143.471 215.578 145.95 215.58H166.77C169.25 215.578 171.628 214.592 173.381 212.838C175.134 211.085 176.12 208.706 176.122 206.226V185.371C176.113 182.896 175.124 180.525 173.371 178.778C171.618 177.031 169.245 176.049 166.77 176.048ZM174.63 206.226C174.627 208.31 173.798 210.308 172.325 211.782C170.852 213.256 168.854 214.085 166.77 214.088H145.95C143.867 214.085 141.869 213.256 140.396 211.782C138.922 210.308 138.093 208.31 138.091 206.226V185.401C138.093 183.317 138.922 181.319 140.396 179.845C141.869 178.372 143.867 177.542 145.95 177.54H166.77C168.849 177.542 170.842 178.367 172.315 179.834C173.787 181.302 174.62 183.292 174.63 185.371V206.226Z" fill="#3F3D56"/>
<path d="M153.75 214.088V215.58H155.242V214.088H153.75ZM153.75 214.088V215.58H155.242V214.088H153.75ZM185.443 188.109C184.94 188.025 184.431 187.983 183.922 187.982H163.102C160.622 187.983 158.244 188.969 156.491 190.723C154.738 192.477 153.752 194.855 153.75 197.335V218.16C153.748 219.186 153.917 220.204 154.25 221.174C154.879 223.022 156.071 224.627 157.659 225.764C159.246 226.901 161.149 227.513 163.102 227.514H183.922C186.401 227.512 188.779 226.526 190.532 224.772C192.286 223.019 193.271 220.64 193.273 218.16V197.335C193.272 195.119 192.485 192.975 191.051 191.285C189.617 189.595 187.629 188.469 185.443 188.109ZM191.781 218.16C191.779 220.244 190.95 222.242 189.476 223.716C188.003 225.19 186.005 226.019 183.922 226.022H163.102C161.018 226.019 159.02 225.19 157.547 223.716C156.074 222.242 155.245 220.244 155.242 218.16V197.335C155.245 195.251 156.074 193.253 157.547 191.779C159.02 190.306 161.018 189.477 163.102 189.474H183.922C186.006 189.475 188.005 190.303 189.478 191.777C190.952 193.251 191.781 195.251 191.781 197.335V218.16ZM153.75 214.088V215.579H155.242V214.088H153.75Z" fill="#3F3D56"/>
<path d="M139.023 408.531H50.582C49.9664 408.531 49.3759 408.775 48.9399 409.21C48.5039 409.645 48.2578 410.235 48.2554 410.85V416.094C51.1733 427.272 54.7058 438.281 58.837 449.069H139.023C139.327 449.07 139.629 449.01 139.911 448.893C140.192 448.777 140.448 448.606 140.663 448.391C140.879 448.175 141.049 447.919 141.166 447.638C141.282 447.356 141.342 447.054 141.342 446.75V410.85C141.341 410.235 141.097 409.646 140.662 409.211C140.227 408.776 139.638 408.531 139.023 408.531Z" fill="#00B3DD"/>
<path d="M130.596 460.713H63.5573C64.3552 462.585 65.1681 464.442 66.0107 466.292H130.596C134.235 466.344 134.198 460.66 130.596 460.713Z" fill="#DA8C9A"/>
<path d="M130.596 473.497H69.3738C70.2686 475.369 71.1883 477.229 72.1329 479.076H130.596C134.235 479.128 134.198 473.452 130.596 473.497Z" fill="#DA8C9A"/>
<path d="M130.596 486.289H75.8988C76.898 488.161 77.9271 490.018 78.9711 491.868H130.596C134.235 491.92 134.198 486.236 130.596 486.289Z" fill="#DA8C9A"/>
<path d="M589.094 142.465H588.67C589.992 142.466 591.297 142.774 592.48 143.366H590.546C588.462 143.368 586.464 144.197 584.991 145.671C583.518 147.145 582.689 149.143 582.686 151.227V172.053C582.689 174.137 583.518 176.135 584.991 177.609C586.464 179.083 588.462 179.912 590.546 179.914H591.779C590.788 180.303 589.734 180.503 588.67 180.504H589.094C591.376 180.502 593.563 179.594 595.176 177.98C596.79 176.367 597.697 174.179 597.7 171.897V151.072C597.697 148.79 596.79 146.602 595.176 144.988C593.563 143.375 591.376 142.467 589.094 142.465Z" fill="#3F3D56"/>
<path opacity="0.21" d="M589.094 142.465H588.67C589.992 142.466 591.297 142.774 592.48 143.366H590.546C588.462 143.368 586.464 144.197 584.991 145.671C583.518 147.145 582.689 149.143 582.686 151.227V172.053C582.689 174.137 583.518 176.135 584.991 177.609C586.464 179.083 588.462 179.912 590.546 179.914H591.779C590.788 180.303 589.734 180.503 588.67 180.504H589.094C591.376 180.502 593.563 179.594 595.176 177.98C596.79 176.367 597.697 174.179 597.7 171.897V151.072C597.697 148.79 596.79 146.602 595.176 144.988C593.563 143.375 591.376 142.467 589.094 142.465Z" fill="black"/>
<path d="M533.912 142.465H533.487C534.81 142.466 536.114 142.774 537.297 143.366H535.364C533.28 143.368 531.282 144.197 529.809 145.671C528.335 147.145 527.507 149.143 527.504 151.227V172.053C527.507 174.137 528.335 176.135 529.809 177.609C531.282 179.083 533.28 179.912 535.364 179.914H536.596C535.606 180.303 534.551 180.503 533.487 180.504H533.912C536.194 180.502 538.381 179.594 539.994 177.98C541.607 176.367 542.515 174.179 542.517 171.897V151.072C542.515 148.79 541.607 146.602 539.994 144.988C538.381 143.375 536.194 142.467 533.912 142.465Z" fill="#00B3DD"/>
<path opacity="0.21" d="M533.912 142.465H533.487C534.81 142.466 536.114 142.774 537.297 143.366H535.364C533.28 143.368 531.282 144.197 529.809 145.671C528.335 147.145 527.507 149.143 527.504 151.227V172.053C527.507 174.137 528.335 176.135 529.809 177.609C531.282 179.083 533.28 179.912 535.364 179.914H536.596C535.606 180.303 534.551 180.503 533.487 180.504H533.912C536.194 180.502 538.381 179.594 539.994 177.98C541.607 176.367 542.515 174.179 542.517 171.897V151.072C542.515 148.79 541.607 146.602 539.994 144.988C538.381 143.375 536.194 142.467 533.912 142.465Z" fill="black"/>
<path d="M535.447 179.979C533.363 179.976 531.365 179.147 529.892 177.674C528.419 176.2 527.59 174.202 527.587 172.118V151.292C527.59 149.208 528.419 147.21 529.892 145.736C531.365 144.262 533.363 143.433 535.447 143.431H537.381C536.198 142.839 534.893 142.531 533.571 142.529H512.75C510.468 142.532 508.281 143.44 506.668 145.053C505.055 146.667 504.147 148.855 504.145 151.136V171.962C504.147 174.244 505.055 176.432 506.668 178.045C508.281 179.659 510.468 180.567 512.75 180.569H533.571C534.635 180.568 535.689 180.367 536.68 179.979L535.447 179.979Z" fill="#00B3DD"/>
<path d="M590.629 179.979C588.545 179.976 586.548 179.147 585.074 177.674C583.601 176.2 582.772 174.202 582.77 172.118V151.292C582.772 149.208 583.601 147.21 585.074 145.736C586.548 144.262 588.545 143.433 590.629 143.431H592.563C591.38 142.839 590.075 142.531 588.753 142.529H567.932C565.651 142.532 563.463 143.44 561.85 145.053C560.237 146.667 559.33 148.855 559.327 151.136V171.962C559.33 174.244 560.237 176.432 561.85 178.045C563.463 179.659 565.651 180.567 567.932 180.569H588.753C589.817 180.568 590.871 180.367 591.862 179.979L590.629 179.979Z" fill="#3F3D56"/>
<path d="M615.215 147.712C622.856 158.227 629.847 169.199 636.147 180.568H623.112C620.831 180.565 618.644 179.657 617.031 178.043C615.418 176.43 614.51 174.242 614.507 171.961V151.136C614.506 149.958 614.747 148.793 615.215 147.712Z" fill="#FF6584"/>
<path d="M589.078 191.495L581.785 180.568L576.454 172.58C576.142 172.113 575.706 171.744 575.193 171.516C574.681 171.287 574.115 171.209 573.56 171.289C573.005 171.37 572.484 171.606 572.058 171.97C571.632 172.334 571.318 172.812 571.152 173.348L568.907 180.568L564.388 195.075C564.21 195.653 564.212 196.272 564.394 196.849C564.576 197.426 564.93 197.933 565.408 198.303C565.886 198.674 566.466 198.89 567.07 198.922C567.674 198.954 568.273 198.801 568.788 198.484L570.391 197.492C570.714 197.293 571.082 197.18 571.461 197.163C571.839 197.146 572.216 197.226 572.555 197.396C572.894 197.565 573.184 197.819 573.398 198.132C573.612 198.445 573.742 198.807 573.776 199.185L575.245 215.221C575.314 215.958 575.655 216.643 576.201 217.142C576.747 217.641 577.459 217.919 578.198 217.922C578.288 217.922 578.377 217.914 578.474 217.907L580.726 217.705C581.115 217.67 581.493 217.558 581.838 217.377C582.183 217.195 582.489 216.948 582.739 216.648C582.988 216.348 583.176 216.001 583.291 215.629C583.406 215.256 583.447 214.864 583.411 214.476L581.897 197.917C581.861 197.528 581.928 197.137 582.092 196.782C582.255 196.427 582.51 196.122 582.829 195.896C583.148 195.671 583.52 195.534 583.909 195.498C584.298 195.463 584.69 195.53 585.044 195.694L585.372 195.843C585.96 196.114 586.619 196.185 587.251 196.046C587.883 195.907 588.452 195.565 588.871 195.073C589.291 194.581 589.538 193.965 589.576 193.319C589.613 192.673 589.438 192.032 589.078 191.495Z" fill="#DA8C9A"/>
</g>
<defs>
<clipPath id="clip0_81_33">
<rect width="673" height="654.223" fill="white"/>
</clipPath>
</defs>
</svg>
