<svg id="Capa_1" data-name="Capa 1" xmlns="http://www.w3.org/2000/svg" viewBox="0 0 497.7 399"><defs><style>.cls-1{fill:#003646;}.cls-2,.cls-3,.cls-4,.cls-5{isolation:isolate;}.cls-2,.cls-3,.cls-4{font-size:120px;font-family:Roboto-Medium, Roboto;font-weight:500;}.cls-2,.cls-3{fill:#079;}.cls-3{letter-spacing:-0.02em;}.cls-4{fill:none;stroke:#079;stroke-miterlimit:10;stroke-width:2px;}.cls-5{font-size:24px;fill:#80cdee;font-family:Roboto-Regular, Roboto;}</style></defs><g id="Capa_2" data-name="Capa 2"><g id="Capa_3" data-name="Capa 3"><path class="cls-1" d="M465.9,379.6,391,384c-28.4,14-243.1,25-257.2-3.8l-7.4-17.4C64.9,237.7,115,87.1,238.4,26.5L262,9c28.4-13.9,82.7-5.8,96.9,23L491.7,302.2C505.8,331,494.2,365.6,465.9,379.6Z"/><path class="cls-1" d="M18.3,0H308.7A18.31,18.31,0,0,1,327,18.3V380.7A18.31,18.31,0,0,1,308.7,399H18.3A18.31,18.31,0,0,1,0,380.7V18.3A18.31,18.31,0,0,1,18.3,0Z"/><text class="cls-2" transform="translate(14.59 265.62)"><tspan xml:space="preserve"> Code</tspan></text><text class="cls-3" transform="translate(6.93 135.51)">A</text><text class="cls-2" transform="translate(80.29 135.51)">n</text><text class="cls-4" transform="translate(80.29 135.51)">n</text><text class="cls-2" transform="translate(148.26 135.51)">der</text><text class="cls-5" transform="translate(99.39 330.3)">Sé pa</text><text class="cls-5" transform="translate(159.43 330.3)">r</text><text class="cls-5" transform="translate(168.03 330.3)">te del futu</text><text class="cls-5" transform="translate(276.12 330.3)">r</text><text class="cls-5" transform="translate(284.29 330.3)">o,</text><text class="cls-5" transform="translate(99.39 359.1)"><tspan xml:space="preserve">  Sé pa</tspan></text><text class="cls-5" transform="translate(171.35 359.1)">r</text><text class="cls-5" transform="translate(179.96 359.1)">te de internet.</text></g></g></svg>