<?xml version="1.0" encoding="utf-8"?>
<!-- Generator: Adobe Illustrator 25.2.1, SVG Export Plug-In . SVG Version: 6.00 Build 0)  -->
<svg version="1.1" id="Capa_1" xmlns="http://www.w3.org/2000/svg" xmlns:xlink="http://www.w3.org/1999/xlink" x="0px" y="0px"
	 viewBox="0 0 497.7 399" style="enable-background:new 0 0 497.7 399;" xml:space="preserve">
<style type="text/css">
	.st0{fill:#003646;}
	.st1{fill:#007799;}
	.st2{fill:#80CDEE;}
	.st3{fill:#00BDFF;}
</style>
<g id="Capa_2_1_">
	<g id="Capa_1-2">
		<path class="st0" d="M465.9,379.6L391,384c-28.4,14-243.1,25-257.2-3.8l-7.4-17.4C64.9,237.7,115,87.1,238.4,26.5L262,9
			c28.4-13.9,82.7-5.8,96.9,23l132.8,270.2C505.8,331,494.2,365.6,465.9,379.6z"/>
		<path class="st0" d="M18.3,0h290.4C318.8,0,327,8.2,327,18.3v362.4c0,10.1-8.2,18.3-18.3,18.3H18.3C8.2,399,0,390.8,0,380.7V18.3
			C0,8.2,8.2,0,18.3,0z"/>
		<circle class="st1" cx="359.1" cy="247.8" r="12.1"/>
		
			<rect x="419" y="142.6" transform="matrix(0.8975 -0.441 0.441 0.8975 -48.6687 211.7273)" class="st1" width="24.2" height="135.8"/>
		<path class="st2" d="M437,378.9c-15.1-1.5-28.8-9.4-37.7-21.7l-8-16.4l-28.7-58.3l21.8-10.7l12.8,26L437,378.9z"/>
		<path class="st3" d="M495.6,326c0,9.7-2.7,19.3-7.7,27.6l-22.8-46.3l21.7-10.6l0.1,0l0.4,0.7l0,0l5.2,10.6v0.1
			c0.2,0.5,0.3,0.9,0.5,1.4c0.1,0.2,0.1,0.4,0.2,0.6l0,0c0,0.1,0,0.1,0,0.2C494.8,315.3,495.6,320.6,495.6,326z"/>
		<path class="st1" d="M476.6,366.7c-3,2.6-6.3,4.8-9.8,6.6l-0.2,0.1l-1.3,0.7c-3.3,1.6-6.7,2.8-10.2,3.6l-15.4-31.4l21.8-10.7
			L476.6,366.7z"/>
		<circle class="st2" cx="374" cy="278.2" r="12.1"/>
		
			<rect x="334.5" y="194.3" transform="matrix(0.8975 -0.441 0.441 0.8975 -62.5743 175.6787)" class="st1" width="24.2" height="56.4"/>
		<circle class="st2" cx="378.6" cy="195.2" r="12.1"/>
		<circle class="st3" cx="393.6" cy="225.7" r="12.1"/>
		<circle class="st1" cx="460.7" cy="270.7" r="12.1"/>
		<circle class="st3" cx="475.6" cy="301.2" r="12.1"/>
		<circle class="st1" cx="449.9" cy="339.8" r="12.1"/>
		
			<rect x="386.3" y="222.9" transform="matrix(0.8975 -0.441 0.441 0.8975 -62.8756 199.8409)" class="st3" width="24.2" height="24.6"/>
		
			<rect x="354.9" y="143.4" transform="matrix(0.8975 -0.441 0.441 0.8975 -37.8533 179.3964)" class="st2" width="24.2" height="55.5"/>
		<circle class="st1" cx="400.8" cy="149.3" r="12.1"/>
		<circle class="st2" cx="355.4" cy="147.6" r="12.1"/>
		<circle class="st1" cx="334.5" cy="197.5" r="12.1"/>
		
			<rect x="370.9" y="102.6" transform="matrix(0.8975 -0.441 0.441 0.8975 -10.4747 180.5116)" class="st3" width="24.2" height="20.3"/>
		<circle class="st3" cx="386.9" cy="120.9" r="12.1"/>
		<circle class="st3" cx="378.6" cy="103.7" r="12.1"/>
		<path class="st3" d="M321.6,10L321.6,10c26.1,12.8,36.9,44.4,24.1,70.6l-132,268.5c-12.8,26.1-44.4,36.9-70.6,24.1l0,0
			c-26.1-12.8-36.9-44.4-24.1-70.6L251.1,34C263.9,7.9,295.5-2.9,321.6,10z"/>
		<circle class="st2" cx="418.1" cy="275" r="12.1"/>
		<circle class="st3" cx="404.2" cy="246.7" r="12.1"/>
		<circle class="st2" cx="435.2" cy="309.9" r="12.1"/>
		
			<rect x="414.3" y="273.6" transform="matrix(0.8975 -0.441 0.441 0.8975 -85.162 218.0127)" class="st2" width="24.2" height="37.1"/>
	</g>
</g>
</svg>
