<svg width="70" height="70" viewBox="0 0 70 70" fill="none" xmlns="http://www.w3.org/2000/svg">
<g clip-path="url(#clip0_81_215)">
<path d="M69.8906 52.9101L66.7119 66.6913C66.2654 68.6396 64.5531 70.0027 62.5475 70.0027C28.0547 69.9999 0 41.9453 0 7.45112C0 5.44682 1.36295 3.73237 3.31133 3.28804L17.0926 0.109325C19.0996 -0.355792 21.1504 0.686005 21.9844 2.58667L28.3445 17.4207C29.088 19.1679 28.5865 21.2037 27.1168 22.404L19.7559 28.3144C24.4016 37.7781 32.0961 45.4726 41.5625 50.121L47.5891 42.7656C48.7769 41.2917 50.8279 40.7818 52.5752 41.5385L67.4092 47.8973C69.1934 48.8359 70.3555 50.914 69.8906 52.9101Z" fill="#003646"/>
</g>
<defs>
<clipPath id="clip0_81_215">
<rect width="70" height="70" fill="white"/>
</clipPath>
</defs>
</svg>
