<svg width="651" height="550" viewBox="0 0 651 550" fill="none" xmlns="http://www.w3.org/2000/svg">
<g clip-path="url(#clip0_90_3)">
<path d="M650.236 76.3731H123.912C123.812 76.3735 123.712 76.3539 123.619 76.3156C123.526 76.2773 123.442 76.2211 123.371 76.15C123.299 76.079 123.243 75.9946 123.204 75.9016C123.166 75.8087 123.146 75.709 123.146 75.6084C123.146 75.5077 123.166 75.4081 123.204 75.3151C123.243 75.2222 123.299 75.1377 123.371 75.0667C123.442 74.9956 123.526 74.9394 123.619 74.9011C123.712 74.8628 123.812 74.8433 123.912 74.8436H650.236C650.337 74.8433 650.436 74.8628 650.529 74.9011C650.622 74.9394 650.707 74.9956 650.778 75.0667C650.849 75.1377 650.906 75.2222 650.944 75.3151C650.983 75.4081 651.003 75.5077 651.003 75.6084C651.003 75.709 650.983 75.8087 650.944 75.9016C650.906 75.9946 650.849 76.079 650.778 76.15C650.707 76.2211 650.622 76.2773 650.529 76.3156C650.436 76.3539 650.337 76.3735 650.236 76.3731Z" fill="#3F3D56"/>
<path d="M141.106 65.6664C145.747 65.6664 149.509 61.9 149.509 57.2539C149.509 52.6078 145.747 48.8414 141.106 48.8414C136.465 48.8414 132.703 52.6078 132.703 57.2539C132.703 61.9 136.465 65.6664 141.106 65.6664Z" fill="#3F3D56"/>
<path d="M170.134 65.6664C174.775 65.6664 178.537 61.9 178.537 57.2539C178.537 52.6078 174.775 48.8414 170.134 48.8414C165.493 48.8414 161.731 52.6078 161.731 57.2539C161.731 61.9 165.493 65.6664 170.134 65.6664Z" fill="#3F3D56"/>
<path d="M199.162 65.6664C203.803 65.6664 207.565 61.9 207.565 57.2539C207.565 52.6078 203.803 48.8414 199.162 48.8414C194.521 48.8414 190.759 52.6078 190.759 57.2539C190.759 61.9 194.521 65.6664 199.162 65.6664Z" fill="#3F3D56"/>
<path d="M632.844 53.9871H612.219C611.814 53.9871 611.425 53.8259 611.138 53.5391C610.852 53.2522 610.691 52.8632 610.691 52.4575C610.691 52.0519 610.852 51.6628 611.138 51.376C611.425 51.0891 611.814 50.928 612.219 50.928H632.844C633.249 50.928 633.638 51.0891 633.924 51.376C634.211 51.6628 634.372 52.0519 634.372 52.4575C634.372 52.8632 634.211 53.2522 633.924 53.5391C633.638 53.8259 633.249 53.9871 632.844 53.9871Z" fill="#3F3D56"/>
<path d="M632.844 59.7228H612.219C612.018 59.7233 611.819 59.6841 611.633 59.6074C611.447 59.5308 611.278 59.4182 611.136 59.2761C610.994 59.134 610.881 58.9653 610.804 58.7795C610.727 58.5936 610.687 58.3945 610.687 58.1933C610.687 57.9921 610.727 57.793 610.804 57.6071C610.881 57.4213 610.994 57.2526 611.136 57.1105C611.278 56.9684 611.447 56.8558 611.633 56.7792C611.819 56.7025 612.018 56.6633 612.219 56.6638H632.844C633.045 56.6633 633.244 56.7025 633.43 56.7792C633.615 56.8558 633.784 56.9684 633.927 57.1105C634.069 57.2526 634.182 57.4213 634.259 57.6071C634.336 57.793 634.375 57.9921 634.375 58.1933C634.375 58.3945 634.336 58.5936 634.259 58.7795C634.182 58.9653 634.069 59.134 633.927 59.2761C633.784 59.4182 633.615 59.5308 633.43 59.6074C633.244 59.6841 633.045 59.7233 632.844 59.7228Z" fill="#3F3D56"/>
<path d="M632.844 65.4586H612.219C611.814 65.4586 611.425 65.2975 611.138 65.0106C610.852 64.7238 610.691 64.3347 610.691 63.9291C610.691 63.5234 610.852 63.1344 611.138 62.8475C611.425 62.5607 611.814 62.3995 612.219 62.3995H632.844C633.249 62.3995 633.638 62.5607 633.924 62.8475C634.211 63.1344 634.372 63.5234 634.372 63.9291C634.372 64.3347 634.211 64.7238 633.924 65.0106C633.638 65.2975 633.249 65.4586 632.844 65.4586Z" fill="#3F3D56"/>
<path d="M279.671 310.452C279.385 310.453 279.111 310.566 278.909 310.769C278.706 310.971 278.593 311.246 278.592 311.532V452.688C278.593 452.975 278.706 453.249 278.909 453.452C279.111 453.654 279.385 453.768 279.671 453.768H476.1C476.386 453.768 476.66 453.654 476.863 453.452C477.065 453.249 477.179 452.975 477.179 452.688V311.532C477.179 311.246 477.065 310.971 476.863 310.769C476.66 310.566 476.386 310.453 476.1 310.452L279.671 310.452Z" fill="#D64D66"/>
<path d="M465.258 322.105V422.414C465.257 423.084 464.991 423.726 464.518 424.2C464.044 424.674 463.403 424.94 462.734 424.941H292.64C292.517 424.941 292.394 424.929 292.271 424.917C291.672 424.827 291.125 424.525 290.729 424.065C290.334 423.606 290.116 423.02 290.116 422.414V322.105C290.116 321.435 290.383 320.793 290.856 320.319C291.329 319.845 291.971 319.579 292.64 319.578H462.734C463.065 319.577 463.394 319.642 463.7 319.769C464.007 319.896 464.285 320.082 464.52 320.317C464.754 320.552 464.94 320.83 465.067 321.137C465.194 321.444 465.259 321.773 465.258 322.105Z" fill="white"/>
<path d="M280.082 137.71C279.796 137.711 279.522 137.824 279.319 138.027C279.117 138.229 279.003 138.504 279.003 138.79V279.947C279.003 280.233 279.117 280.507 279.319 280.71C279.522 280.912 279.796 281.026 280.082 281.026H476.511C476.797 281.026 477.071 280.912 477.273 280.71C477.476 280.507 477.589 280.233 477.59 279.947V138.79C477.589 138.504 477.476 138.229 477.273 138.027C477.071 137.825 476.797 137.711 476.511 137.71L280.082 137.71Z" fill="#3F3D56"/>
<path d="M465.669 149.363V249.672C465.668 250.342 465.401 250.984 464.928 251.458C464.455 251.932 463.814 252.198 463.144 252.199H293.051C292.927 252.199 292.805 252.187 292.681 252.175C292.082 252.085 291.536 251.783 291.14 251.324C290.745 250.864 290.527 250.278 290.526 249.672V149.363C290.527 148.693 290.793 148.051 291.267 147.577C291.74 147.103 292.381 146.837 293.051 146.836H463.144C463.476 146.835 463.804 146.9 464.111 147.027C464.418 147.154 464.696 147.34 464.931 147.575C465.165 147.81 465.351 148.088 465.478 148.395C465.604 148.702 465.669 149.031 465.669 149.363Z" fill="white"/>
<path d="M465.669 224.434V249.672C465.668 250.342 465.401 250.984 464.928 251.458C464.455 251.932 463.814 252.198 463.144 252.199H293.051C292.927 252.199 292.805 252.187 292.681 252.175C292.082 252.085 291.536 251.783 291.14 251.324C290.745 250.864 290.527 250.278 290.526 249.672V209.8L290.538 209.788L291.019 207.001C292.287 200.602 299.614 196.941 306.117 197.422C312.619 197.902 318.457 201.392 324.096 204.659C329.737 207.938 335.796 211.168 342.31 211.045C355.573 210.799 365.351 197.039 378.565 195.77C399.217 193.772 412.924 222.265 433.638 221.229C442.553 220.785 451.716 214.769 459.758 218.628C462.296 219.882 464.368 221.917 465.669 224.434Z" fill="#E9CED3"/>
<path d="M342.966 180.942C366.45 180.942 385.489 161.882 385.489 138.37C385.489 114.858 366.45 95.7984 342.966 95.7984C319.481 95.7984 300.443 114.858 300.443 138.37C300.443 161.882 319.481 180.942 342.966 180.942Z" fill="#00C6FF"/>
<path d="M321.97 120.483C355.209 120.483 382.154 93.5118 382.154 60.2414C382.154 26.971 355.209 0 321.97 0C288.731 0 261.785 26.971 261.785 60.2414C261.785 93.5118 288.731 120.483 321.97 120.483Z" fill="#00C6FF"/>
<path d="M281.307 155.399C304.792 155.399 323.83 136.339 323.83 112.827C323.83 89.3154 304.792 70.2554 281.307 70.2554C257.822 70.2554 238.784 89.3154 238.784 112.827C238.784 136.339 257.822 155.399 281.307 155.399Z" fill="#00C6FF"/>
<path d="M349.061 254.339C349.248 254.338 349.428 254.271 349.569 254.148C349.71 254.026 349.802 253.856 349.828 253.671C349.861 253.439 353.09 230.126 350.19 199.141C347.512 170.525 338.912 129.309 313.148 95.4587C313.087 95.3774 313.01 95.309 312.921 95.2575C312.833 95.206 312.736 95.1724 312.635 95.1586C312.534 95.1449 312.431 95.1512 312.332 95.1773C312.234 95.2033 312.141 95.2486 312.06 95.3105C311.979 95.3724 311.911 95.4497 311.859 95.538C311.808 95.6264 311.775 95.7239 311.761 95.8252C311.748 95.9264 311.754 96.0293 311.78 96.128C311.807 96.2267 311.852 96.3193 311.914 96.4004C337.455 129.958 345.986 170.872 348.645 199.286C351.528 230.09 348.325 253.222 348.292 253.452C348.276 253.563 348.285 253.675 348.316 253.782C348.348 253.888 348.402 253.987 348.475 254.071C348.548 254.155 348.638 254.223 348.739 254.269C348.84 254.315 348.95 254.339 349.061 254.339Z" fill="#3F3D56"/>
<path d="M336.182 140.218C336.346 140.218 336.506 140.166 336.638 140.07C336.771 139.974 336.87 139.838 336.92 139.682C336.971 139.526 336.971 139.358 336.921 139.202C336.87 139.045 336.771 138.909 336.639 138.813C329.298 133.838 321.367 129.797 313.03 126.781C300.005 122.007 280.198 117.679 259.807 124.176C259.709 124.207 259.619 124.256 259.541 124.322C259.463 124.388 259.398 124.468 259.351 124.559C259.304 124.65 259.275 124.749 259.267 124.851C259.258 124.953 259.269 125.055 259.3 125.152C259.331 125.25 259.381 125.34 259.447 125.418C259.513 125.496 259.594 125.561 259.684 125.607C259.775 125.654 259.874 125.683 259.976 125.691C260.078 125.699 260.18 125.688 260.277 125.656C280.25 119.293 299.698 123.549 312.496 128.24C320.7 131.204 328.503 135.178 335.726 140.07C335.859 140.166 336.018 140.218 336.182 140.218Z" fill="#3F3D56"/>
<path d="M425.185 203.501C440.664 203.501 453.211 190.939 453.211 175.442C453.211 159.946 440.664 147.384 425.185 147.384C409.706 147.384 397.158 159.946 397.158 175.442C397.158 190.939 409.706 203.501 425.185 203.501Z" fill="#D64D66"/>
<path d="M439.023 163.653C460.931 163.653 478.69 145.877 478.69 123.948C478.69 102.02 460.931 84.2438 439.023 84.2438C417.115 84.2438 399.356 102.02 399.356 123.948C399.356 145.877 417.115 163.653 439.023 163.653Z" fill="#D64D66"/>
<path d="M465.823 186.666C481.302 186.666 493.85 174.103 493.85 158.607C493.85 143.111 481.302 130.548 465.823 130.548C450.345 130.548 437.797 143.111 437.797 158.607C437.797 174.103 450.345 186.666 465.823 186.666Z" fill="#D64D66"/>
<path d="M421.167 251.876C421.044 251.876 420.926 251.831 420.833 251.751C420.74 251.67 420.679 251.558 420.662 251.436C419.324 239.498 419.245 227.451 420.423 215.496C422.188 196.635 427.857 169.47 444.837 147.16C444.878 147.106 444.929 147.061 444.987 147.028C445.045 146.994 445.109 146.972 445.176 146.963C445.242 146.954 445.31 146.958 445.375 146.975C445.44 146.992 445.501 147.022 445.554 147.063C445.607 147.104 445.652 147.154 445.686 147.213C445.72 147.271 445.742 147.335 445.751 147.402C445.76 147.468 445.756 147.536 445.738 147.601C445.721 147.666 445.691 147.727 445.651 147.78C428.817 169.898 423.194 196.864 421.442 215.591C420.269 227.467 420.347 239.433 421.674 251.292C421.685 251.365 421.679 251.439 421.658 251.509C421.638 251.579 421.602 251.644 421.554 251.7C421.506 251.755 421.447 251.8 421.38 251.83C421.313 251.86 421.241 251.876 421.167 251.876Z" fill="#3F3D56"/>
<path d="M429.656 176.66C429.548 176.66 429.443 176.626 429.355 176.563C429.268 176.499 429.203 176.41 429.169 176.307C429.136 176.204 429.136 176.093 429.169 175.99C429.202 175.887 429.267 175.798 429.355 175.734C434.193 172.455 439.42 169.792 444.915 167.804C453.5 164.657 466.555 161.805 479.994 166.087C480.058 166.107 480.117 166.14 480.169 166.184C480.22 166.227 480.262 166.28 480.293 166.34C480.324 166.399 480.343 166.465 480.349 166.532C480.354 166.599 480.347 166.666 480.326 166.73C480.306 166.794 480.273 166.854 480.23 166.905C480.187 166.956 480.134 166.999 480.074 167.03C480.014 167.061 479.949 167.079 479.882 167.085C479.815 167.091 479.748 167.083 479.684 167.063C466.52 162.869 453.702 165.674 445.267 168.766C439.86 170.719 434.717 173.338 429.956 176.562C429.869 176.626 429.764 176.66 429.656 176.66Z" fill="#3F3D56"/>
<path d="M462.734 425.776H377.826V371.104H466.092V422.414C466.091 423.305 465.737 424.16 465.107 424.79C464.477 425.42 463.624 425.775 462.734 425.776ZM379.493 424.107H462.734C463.182 424.106 463.612 423.928 463.929 423.61C464.246 423.293 464.424 422.863 464.424 422.414V372.773H379.493V424.107Z" fill="#D64D66"/>
<path d="M462.733 425.776H396.299V385.899H466.091V422.414C466.091 423.305 465.736 424.16 465.107 424.79C464.477 425.42 463.624 425.775 462.733 425.776ZM397.966 424.107H462.733C463.182 424.106 463.612 423.928 463.929 423.61C464.246 423.293 464.424 422.863 464.424 422.414V387.568H397.966V424.107Z" fill="#D64D66"/>
<path d="M462.733 425.776H417.234V401.927H466.091V422.414C466.091 423.305 465.736 424.16 465.107 424.79C464.477 425.42 463.624 425.775 462.733 425.776ZM418.901 424.107H462.733C463.182 424.106 463.612 423.928 463.929 423.61C464.246 423.293 464.424 422.863 464.424 422.414V403.596H418.901V424.107Z" fill="#D64D66"/>
<path d="M351.567 374.405C362.449 374.405 371.271 365.573 371.271 354.678C371.271 343.784 362.449 334.952 351.567 334.952C340.685 334.952 331.863 343.784 331.863 354.678C331.863 365.573 340.685 374.405 351.567 374.405Z" fill="#D64D66"/>
<path d="M540.543 550H0.992521C0.729794 549.999 0.478081 549.894 0.292573 549.708C0.107065 549.522 0.00289917 549.269 0.00289917 549.006C0.00289917 548.743 0.107065 548.491 0.292573 548.305C0.478081 548.118 0.729794 548.013 0.992521 548.013H540.543C540.806 548.013 541.058 548.118 541.243 548.305C541.429 548.491 541.533 548.743 541.533 549.006C541.533 549.269 541.429 549.522 541.243 549.708C541.058 549.894 540.806 549.999 540.543 550Z" fill="#3F3D56"/>
<path d="M61.0016 537L73.1983 536.999L79 491L61 491.001L61.0016 537Z" fill="#A0616A"/>
<path d="M58.0008 549L97 548.999V548.495C96.9997 544.385 95.4003 540.444 92.5537 537.539C89.707 534.633 85.8462 533 81.8204 533H81.8194L58 533.001L58.0008 549Z" fill="#2F2E41"/>
<path d="M105.002 537L117.198 536.999L123 491L105 491.001L105.002 537Z" fill="#A0616A"/>
<path d="M102.001 549L141 548.999V548.495C141 544.385 139.4 540.444 136.554 537.539C133.707 534.633 129.846 533 125.82 533H125.819L102 533.001L102.001 549Z" fill="#2F2E41"/>
<path d="M127.755 386.884C126.707 386.036 125.859 384.971 125.271 383.763C124.683 382.556 124.37 381.235 124.353 379.895C124.337 378.555 124.617 377.227 125.174 376.005C125.732 374.784 126.553 373.698 127.58 372.825L121 352.911L132.246 346L141.139 374.252C142.506 376.057 143.157 378.297 142.968 380.546C142.779 382.795 141.763 384.897 140.113 386.454C138.464 388.011 136.294 388.915 134.017 388.994C131.739 389.073 129.511 388.323 127.755 386.884Z" fill="#A0616A"/>
<path d="M115.937 374.018C115.937 374.018 127.138 434.449 126.999 446.179C126.83 460.334 120.51 521 120.51 521L104.421 516.991L101.379 446.676L88.654 401.799L83.7596 459.358L78.8466 519.906H60.1808L56 368.004L116.943 366L115.937 374.018Z" fill="#2F2E41"/>
<path d="M59.8182 252L91.9301 253.003L112 377.407C112 377.407 69.3515 396.97 51.2885 382.925C33.2256 368.879 59.8182 252 59.8182 252Z" fill="#00C6FF"/>
<path d="M87.4054 278.18L114.77 434L132 428.974L119.838 372.677L113.757 316.381L114.77 260.085L93.4865 251.037L87.4054 244C87.4054 244 75.2432 259.079 87.4054 278.18Z" fill="#2F2E41"/>
<path d="M73.8411 274.373L71.8029 438L30.0191 430.964L33.0765 279.181L29 258.073L49.3823 249.026L57.6356 244C57.6356 244 75.8793 249.461 73.8411 274.373Z" fill="#2F2E41"/>
<path d="M106 263.028L115 260L128 318.542L139 364.972L123 368L108 317.533L106 263.028Z" fill="#2F2E41"/>
<path d="M15.2446 396.884C16.2931 396.036 17.1411 394.971 17.7289 393.763C18.3167 392.556 18.63 391.235 18.6467 389.895C18.6634 388.555 18.3831 387.227 17.8256 386.005C17.2681 384.784 16.4469 383.698 15.4199 382.825L22 362.911L10.7543 356L1.86074 384.252C0.49369 386.057 -0.156956 388.297 0.0321026 390.546C0.221161 392.795 1.2368 394.897 2.88654 396.454C4.53628 398.011 6.70549 398.915 8.98316 398.994C11.2608 399.073 13.4887 398.323 15.2446 396.884Z" fill="#A0616A"/>
<path d="M38 261.991L28.9933 259L15.983 316.838L4 374.358L22.0227 377L35.9985 315.841L38 261.991Z" fill="#2F2E41"/>
<path d="M63.1313 236.167C52.308 230.251 48.3303 216.681 54.2469 205.857C60.1634 195.034 73.7338 191.056 84.5571 196.973C95.3804 202.889 99.3581 216.46 93.4416 227.283C87.525 238.106 73.9546 242.084 63.1313 236.167Z" fill="#A0616A"/>
<path d="M81.6487 187.297C60.0426 181.157 53.9097 198.805 53.9097 198.805C43.4952 205.614 50.0156 214.151 50.0156 214.151C47.3877 214.726 52.642 229.881 54.394 229.498C55.3288 229.293 57.7328 232.121 59.7716 234.803C60.4707 234.802 61.1683 234.868 61.8544 235L57.8986 220.578C57.8986 220.578 71.2325 218.565 75.3206 212.235C79.2319 206.179 92.1077 204.267 95.7719 208.312C95.9886 207.149 96.4324 206.038 97.0787 205.042C97.5791 204.285 98.2333 203.639 99 203.144C95.7603 189.575 81.6487 187.297 81.6487 187.297Z" fill="#2F2E41"/>
</g>
<defs>
<clipPath id="clip0_90_3">
<rect width="651" height="550" fill="white"/>
</clipPath>
</defs>
</svg>
