<svg width="84" height="84" viewBox="0 0 84 84" fill="none" xmlns="http://www.w3.org/2000/svg">
<path fill-rule="evenodd" clip-rule="evenodd" d="M42 0C18.8055 0 0 18.8055 0 42C0 65.1945 18.8055 84 42 84C65.1945 84 84 65.1945 84 42C84 18.8055 65.1945 0 42 0ZM61.467 28.5635C60.837 35.203 58.1 51.3205 56.7105 58.758C56.1225 61.908 54.9605 62.9615 53.8405 63.063C51.401 63.287 49.5495 61.4495 47.187 59.9025C43.491 57.4805 41.4015 55.972 37.814 53.606C33.6665 50.8725 36.3545 49.371 38.717 46.9175C39.3365 46.2735 50.0815 36.498 50.2915 35.6125C50.316 35.5005 50.344 35.0875 50.0955 34.8705C49.847 34.6535 49.4865 34.727 49.2275 34.7865C48.8565 34.8705 42.952 38.773 31.5105 46.494C29.834 47.6455 28.315 48.2055 26.9535 48.1775C25.4555 48.146 22.5715 47.3305 20.426 46.6305C17.7975 45.7765 15.7045 45.3215 15.8865 43.8725C15.981 43.1165 17.0205 42.343 19.0085 41.552C31.2515 36.218 39.417 32.7005 43.5015 30.9995C55.167 26.1485 57.589 25.305 59.171 25.277C61.152 25.249 61.628 26.8835 61.467 28.5635Z" fill="#003646"/>
</svg>
