<svg width="76" height="87" viewBox="0 0 76 87" fill="none" xmlns="http://www.w3.org/2000/svg">
<g clip-path="url(#clip0_81_217)">
<path d="M64.617 22.0619C57.5089 14.9252 48.0429 11 37.983 11C17.2187 11 0.322321 27.9242 0.322321 48.7227C0.322321 55.3666 2.05268 61.8576 5.34375 67.584L0 87.125L19.967 81.8744C25.4634 84.882 31.6554 86.4623 37.9661 86.4623H37.983C58.7304 86.4623 76 69.5381 76 48.7397C76 38.6633 71.725 29.1986 64.617 22.0619ZM37.983 80.1072C32.3509 80.1072 26.8375 78.5949 22.0366 75.7402L20.9 75.0605L9.05893 78.1701L12.2143 66.5984L11.4679 65.409C8.32946 60.4133 6.68393 54.6529 6.68393 48.7227C6.68393 31.4416 20.7304 17.3721 38 17.3721C46.3634 17.3721 54.2179 20.6346 60.1214 26.5648C66.025 32.4951 69.6554 40.3625 69.6384 48.7397C69.6384 66.0377 55.2357 80.1072 37.983 80.1072ZM55.1509 56.624C54.2179 56.1482 49.5866 53.8713 48.7214 53.5654C47.8563 53.2426 47.2286 53.0896 46.6009 54.0412C45.9732 54.9928 44.175 57.0998 43.6152 57.7455C43.0723 58.3742 42.5125 58.4592 41.5795 57.9834C36.0491 55.2137 32.4188 53.0387 28.7714 46.7686C27.8045 45.1033 29.7384 45.2223 31.5366 41.6199C31.842 40.9912 31.6893 40.4475 31.4518 39.9717C31.2143 39.4959 29.3312 34.857 28.5509 32.9709C27.7875 31.1357 27.0071 31.3906 26.4304 31.3566C25.8875 31.3227 25.2598 31.3227 24.6321 31.3227C24.0045 31.3227 22.9866 31.5605 22.1214 32.4951C21.2562 33.4467 18.8304 35.7236 18.8304 40.3625C18.8304 45.0014 22.2063 49.4873 22.6643 50.116C23.1393 50.7447 29.2973 60.2604 38.7464 64.3555C44.7179 66.9383 47.0589 67.1592 50.0446 66.7174C51.8598 66.4455 55.6089 64.4404 56.3893 62.2314C57.1696 60.0225 57.1696 58.1363 56.9321 57.7455C56.7116 57.3207 56.0839 57.0828 55.1509 56.624Z" fill="#003646"/>
</g>
<defs>
<clipPath id="clip0_81_217">
<rect width="76" height="87" fill="white"/>
</clipPath>
</defs>
</svg>
